<svg width="564" height="221" viewBox="0 0 564 221" fill="none" xmlns="http://www.w3.org/2000/svg">
<g filter="url(#filter0_dd_402_3290)">
<g filter="url(#filter1_d_402_3290)">
<rect x="74.3789" y="52.1016" width="87.9396" height="68.8223" rx="15.2938" fill="white"/>
<rect x="75.3348" y="53.0574" width="86.0279" height="66.9106" rx="14.338" stroke="#EBEBEB" stroke-width="1.91173"/>
<path d="M122.429 83.6281L110.48 71.6798C110.032 71.232 109.425 70.9805 108.791 70.9805C108.158 70.9805 107.55 71.232 107.102 71.6798L95.1536 83.6281C94.9306 83.8495 94.7539 84.1129 94.6336 84.4032C94.5134 84.6934 94.452 85.0047 94.4531 85.3188V99.6568C94.4531 99.9737 94.579 100.278 94.8031 100.502C95.0272 100.726 95.3311 100.852 95.648 100.852H105.207C105.524 100.852 105.827 100.726 106.052 100.502C106.276 100.278 106.401 99.9737 106.401 99.6568V91.293H111.181V99.6568C111.181 99.9737 111.307 100.278 111.531 100.502C111.755 100.726 112.059 100.852 112.376 100.852H121.934C122.251 100.852 122.555 100.726 122.779 100.502C123.003 100.278 123.129 99.9737 123.129 99.6568V85.3188C123.13 85.0047 123.069 84.6934 122.949 84.4032C122.828 84.1129 122.652 83.8495 122.429 83.6281ZM120.739 98.462H113.57V90.0982C113.57 89.7813 113.445 89.4774 113.22 89.2533C112.996 89.0292 112.693 88.9033 112.376 88.9033H105.207C104.89 88.9033 104.586 89.0292 104.362 89.2533C104.138 89.4774 104.012 89.7813 104.012 90.0982V98.462H96.8428V85.3188L108.791 73.3705L120.739 85.3188V98.462Z" fill="#1F2937"/>
<path d="M144.62 84.8247C144.654 84.7914 144.693 84.7649 144.737 84.7469C144.78 84.7289 144.827 84.7196 144.874 84.7196C144.921 84.7196 144.968 84.7289 145.011 84.7469C145.055 84.7649 145.094 84.7914 145.127 84.8247C145.161 84.858 145.187 84.8975 145.205 84.941C145.223 84.9845 145.232 85.0312 145.232 85.0783C145.232 85.1254 145.223 85.172 145.205 85.2155C145.187 85.259 145.161 85.2986 145.127 85.3319L141.543 88.9164C141.51 88.9497 141.47 88.9761 141.427 88.9942C141.383 89.0122 141.336 89.0215 141.289 89.0215C141.242 89.0215 141.196 89.0122 141.152 88.9942C141.109 88.9761 141.069 88.9497 141.036 88.9164L137.451 85.3319C137.384 85.2646 137.346 85.1734 137.346 85.0783C137.346 84.9831 137.384 84.8919 137.451 84.8247C137.518 84.7574 137.61 84.7196 137.705 84.7196C137.8 84.7196 137.891 84.7574 137.958 84.8247L141.289 88.156L144.62 84.8247Z" fill="#1F2937"/>
</g>
<g filter="url(#filter2_d_402_3290)">
<rect x="165.766" y="51.4922" width="323.082" height="70.0404" rx="15.2938" fill="white"/>
<rect x="166.721" y="52.4481" width="321.171" height="68.1286" rx="14.338" stroke="#EBEBEB" stroke-width="1.91173"/>
<path d="M193.323 96.0117H187.021V76.5468H193.522C195.429 76.5468 197.067 76.9365 198.436 77.7159C199.805 78.4889 200.853 79.6009 201.582 81.0519C202.317 82.4965 202.684 84.2295 202.684 86.2508C202.684 88.2784 202.314 90.0208 201.572 91.4781C200.837 92.9355 199.773 94.057 198.379 94.8427C196.985 95.622 195.3 96.0117 193.323 96.0117ZM189.958 93.4455H193.161C194.644 93.4455 195.876 93.1668 196.858 92.6092C197.84 92.0452 198.575 91.231 199.063 90.1665C199.551 89.0957 199.795 87.7905 199.795 86.2508C199.795 84.7237 199.551 83.428 199.063 82.3635C198.582 81.299 197.863 80.4911 196.906 79.9399C195.949 79.3886 194.761 79.113 193.342 79.113H189.958V93.4455ZM211.952 96.3064C210.514 96.3064 209.275 95.999 208.236 95.3844C207.203 94.7635 206.405 93.8923 205.841 92.7707C205.283 91.6429 205.005 90.3218 205.005 88.8074C205.005 87.3121 205.283 85.9941 205.841 84.8536C206.405 83.7131 207.191 82.8229 208.198 82.1829C209.212 81.5429 210.397 81.223 211.753 81.223C212.576 81.223 213.375 81.3592 214.148 81.6316C214.921 81.9041 215.615 82.3318 216.229 82.9147C216.844 83.4977 217.328 84.2548 217.683 85.1863C218.038 86.1114 218.216 87.236 218.216 88.5603V89.5678H206.611V87.4388H215.431C215.431 86.6911 215.279 86.029 214.975 85.4524C214.67 84.8695 214.243 84.4101 213.691 84.0743C213.147 83.7384 212.507 83.5705 211.772 83.5705C210.973 83.5705 210.276 83.767 209.681 84.1598C209.091 84.5463 208.635 85.0532 208.312 85.6805C207.995 86.3014 207.837 86.9763 207.837 87.7049V89.3682C207.837 90.344 208.008 91.174 208.35 91.8583C208.699 92.5426 209.183 93.0654 209.804 93.4265C210.425 93.7814 211.151 93.9588 211.981 93.9588C212.519 93.9588 213.01 93.8827 213.454 93.7307C213.897 93.5723 214.281 93.3378 214.604 93.0274C214.927 92.7169 215.174 92.3335 215.345 91.8773L218.035 92.3621C217.82 93.1541 217.433 93.8479 216.875 94.4435C216.324 95.0328 215.63 95.4921 214.794 95.8216C213.964 96.1448 213.017 96.3064 211.952 96.3064ZM231.86 84.9772L229.284 85.4334C229.177 85.1039 229.006 84.7903 228.771 84.4925C228.543 84.1947 228.233 83.9507 227.84 83.7606C227.447 83.5705 226.956 83.4755 226.367 83.4755C225.562 83.4755 224.89 83.6561 224.352 84.0172C223.813 84.3721 223.544 84.8314 223.544 85.3954C223.544 85.8833 223.724 86.2761 224.086 86.5739C224.447 86.8717 225.03 87.1157 225.834 87.3057L228.153 87.838C229.497 88.1485 230.498 88.6268 231.157 89.2731C231.816 89.9194 232.145 90.759 232.145 91.7918C232.145 92.6662 231.892 93.4455 231.385 94.1299C230.884 94.8078 230.184 95.3401 229.284 95.7266C228.391 96.1131 227.355 96.3064 226.176 96.3064C224.542 96.3064 223.208 95.9579 222.175 95.2609C221.142 94.5576 220.509 93.5596 220.274 92.267L223.021 91.8488C223.192 92.5648 223.544 93.1066 224.076 93.4741C224.608 93.8352 225.302 94.0158 226.157 94.0158C227.089 94.0158 227.833 93.8226 228.391 93.436C228.949 93.0432 229.227 92.5648 229.227 92.0009C229.227 91.5447 229.056 91.1613 228.714 90.8509C228.378 90.5404 227.862 90.3059 227.165 90.1475L224.694 89.6058C223.332 89.2953 222.324 88.8011 221.671 88.1231C221.025 87.4451 220.702 86.5866 220.702 85.5474C220.702 84.6857 220.943 83.9317 221.424 83.2854C221.906 82.6391 222.571 82.1354 223.42 81.7742C224.269 81.4067 225.242 81.223 226.338 81.223C227.916 81.223 229.158 81.5651 230.064 82.2494C230.97 82.9274 231.569 83.8367 231.86 84.9772ZM234.822 96.0117V81.413H237.663V96.0117H234.822ZM236.257 79.1605C235.763 79.1605 235.338 78.9958 234.983 78.6663C234.635 78.3305 234.461 77.9313 234.461 77.4687C234.461 76.9999 234.635 76.6007 234.983 76.2712C235.338 75.9354 235.763 75.7675 236.257 75.7675C236.751 75.7675 237.172 75.9354 237.521 76.2712C237.876 76.6007 238.053 76.9999 238.053 77.4687C238.053 77.9313 237.876 78.3305 237.521 78.6663C237.172 78.9958 236.751 79.1605 236.257 79.1605ZM247.159 101.79C246 101.79 245.002 101.638 244.165 101.334C243.335 101.03 242.657 100.628 242.132 100.127C241.606 99.6265 241.213 99.0785 240.953 98.4828L243.396 97.4754C243.567 97.7542 243.795 98.0488 244.08 98.3593C244.371 98.6761 244.764 98.9454 245.258 99.1672C245.759 99.3889 246.402 99.4998 247.188 99.4998C248.265 99.4998 249.155 99.2369 249.859 98.711C250.562 98.1914 250.914 97.3613 250.914 96.2208V93.3505H250.733C250.562 93.661 250.315 94.0063 249.992 94.3865C249.675 94.7666 249.238 95.0961 248.68 95.3749C248.122 95.6537 247.397 95.7931 246.504 95.7931C245.35 95.7931 244.311 95.5238 243.386 94.9852C242.467 94.4403 241.739 93.6388 241.2 92.5807C240.668 91.5162 240.402 90.2077 240.402 88.6554C240.402 87.103 240.665 85.7724 241.191 84.6635C241.723 83.5547 242.452 82.7056 243.377 82.1164C244.302 81.5208 245.35 81.223 246.523 81.223C247.429 81.223 248.16 81.375 248.718 81.6792C249.276 81.977 249.71 82.3255 250.02 82.7246C250.337 83.1238 250.581 83.4755 250.752 83.7796H250.961V81.413H253.746V96.3349C253.746 97.5894 253.454 98.6191 252.871 99.4238C252.289 100.228 251.5 100.824 250.505 101.211C249.516 101.597 248.401 101.79 247.159 101.79ZM247.131 93.436C247.948 93.436 248.639 93.246 249.203 92.8658C249.773 92.4793 250.204 91.928 250.495 91.212C250.793 90.4897 250.942 89.6248 250.942 88.6173C250.942 87.6352 250.796 86.7703 250.505 86.0227C250.213 85.275 249.786 84.692 249.222 84.2739C248.658 83.8493 247.961 83.6371 247.131 83.6371C246.275 83.6371 245.563 83.8588 244.992 84.3024C244.422 84.7396 243.991 85.3352 243.7 86.0892C243.415 86.8432 243.272 87.6859 243.272 88.6173C243.272 89.5741 243.418 90.4137 243.709 91.136C244.001 91.8583 244.432 92.4222 245.002 92.8278C245.578 93.2333 246.288 93.436 247.131 93.436ZM259.951 87.3438V96.0117H257.109V81.413H259.837V83.7891H260.017C260.353 83.0161 260.879 82.3952 261.595 81.9263C262.317 81.4574 263.227 81.223 264.323 81.223C265.318 81.223 266.189 81.4321 266.937 81.8502C267.684 82.2621 268.264 82.8767 268.676 83.6941C269.088 84.5115 269.294 85.5221 269.294 86.726V96.0117H266.452V87.0681C266.452 86.01 266.176 85.1831 265.625 84.5875C265.074 83.9856 264.316 83.6846 263.353 83.6846C262.694 83.6846 262.108 83.8272 261.595 84.1123C261.088 84.3974 260.686 84.8156 260.388 85.3669C260.097 85.9118 259.951 86.5707 259.951 87.3438ZM295.687 82.8767H292.721C292.607 82.2431 292.395 81.6855 292.085 81.204C291.774 80.7224 291.394 80.3137 290.944 79.9779C290.494 79.6421 289.991 79.3886 289.433 79.2175C288.882 79.0465 288.296 78.9609 287.675 78.9609C286.553 78.9609 285.549 79.2429 284.662 79.8068C283.781 80.3707 283.084 81.1976 282.571 82.2874C282.064 83.3773 281.81 84.7079 281.81 86.2793C281.81 87.8633 282.064 89.2003 282.571 90.2901C283.084 91.3799 283.784 92.2036 284.671 92.7612C285.558 93.3188 286.556 93.5976 287.665 93.5976C288.28 93.5976 288.863 93.5152 289.414 93.3505C289.972 93.1794 290.475 92.9291 290.925 92.5997C291.375 92.2702 291.755 91.8678 292.066 91.3926C292.382 90.9111 292.601 90.3598 292.721 89.7389L295.687 89.7484C295.528 90.7051 295.221 91.5859 294.765 92.3906C294.315 93.1889 293.735 93.8796 293.026 94.4625C292.322 95.0391 291.518 95.4858 290.612 95.8026C289.705 96.1194 288.717 96.2778 287.646 96.2778C285.961 96.2778 284.459 95.8787 283.141 95.0803C281.823 94.2756 280.784 93.1256 280.024 91.6302C279.27 90.1349 278.893 88.3512 278.893 86.2793C278.893 84.201 279.273 82.4173 280.033 80.9283C280.794 79.433 281.833 78.2861 283.151 77.4878C284.469 76.6831 285.967 76.2807 287.646 76.2807C288.679 76.2807 289.642 76.4296 290.535 76.7274C291.435 77.0189 292.243 77.4497 292.959 78.02C293.675 78.5839 294.268 79.2746 294.736 80.0919C295.205 80.903 295.522 81.8312 295.687 82.8767ZM304.674 96.3064C303.306 96.3064 302.111 95.9927 301.091 95.3654C300.071 94.7381 299.279 93.8606 298.715 92.7327C298.151 91.6049 297.869 90.2869 297.869 88.7789C297.869 87.2646 298.151 85.9403 298.715 84.8061C299.279 83.6719 300.071 82.7912 301.091 82.1639C302.111 81.5366 303.306 81.223 304.674 81.223C306.043 81.223 307.237 81.5366 308.257 82.1639C309.277 82.7912 310.069 83.6719 310.633 84.8061C311.197 85.9403 311.479 87.2646 311.479 88.7789C311.479 90.2869 311.197 91.6049 310.633 92.7327C310.069 93.8606 309.277 94.7381 308.257 95.3654C307.237 95.9927 306.043 96.3064 304.674 96.3064ZM304.684 93.9208C305.571 93.9208 306.306 93.6863 306.889 93.2174C307.472 92.7486 307.903 92.1244 308.181 91.3451C308.466 90.5657 308.609 89.7072 308.609 88.7694C308.609 87.838 308.466 86.9826 308.181 86.2032C307.903 85.4175 307.472 84.7871 306.889 84.3119C306.306 83.8367 305.571 83.599 304.684 83.599C303.79 83.599 303.049 83.8367 302.46 84.3119C301.877 84.7871 301.443 85.4175 301.158 86.2032C300.879 86.9826 300.739 87.838 300.739 88.7694C300.739 89.7072 300.879 90.5657 301.158 91.3451C301.443 92.1244 301.877 92.7486 302.46 93.2174C303.049 93.6863 303.79 93.9208 304.684 93.9208ZM317.045 87.3438V96.0117H314.203V81.413H316.931V83.7891H317.112C317.447 83.0161 317.973 82.3952 318.689 81.9263C319.412 81.4574 320.321 81.223 321.417 81.223C322.412 81.223 323.283 81.4321 324.031 81.8502C324.778 82.2621 325.358 82.8767 325.77 83.6941C326.182 84.5115 326.388 85.5221 326.388 86.726V96.0117H323.546V87.0681C323.546 86.01 323.27 85.1831 322.719 84.5875C322.168 83.9856 321.411 83.6846 320.448 83.6846C319.789 83.6846 319.203 83.8272 318.689 84.1123C318.182 84.3974 317.78 84.8156 317.482 85.3669C317.191 85.9118 317.045 86.5707 317.045 87.3438ZM336.699 81.413V83.6941H328.449V81.413H336.699ZM330.711 96.0117V79.7213C330.711 78.8089 330.911 78.0517 331.31 77.4497C331.709 76.8415 332.238 76.3884 332.897 76.0906C333.556 75.7865 334.272 75.6344 335.045 75.6344C335.615 75.6344 336.103 75.6819 336.509 75.777C336.914 75.8657 337.215 75.948 337.412 76.0241L336.746 78.3241C336.613 78.2861 336.442 78.2418 336.233 78.1911C336.024 78.134 335.77 78.1055 335.473 78.1055C334.782 78.1055 334.288 78.2766 333.99 78.6188C333.699 78.9609 333.553 79.4552 333.553 80.1014V96.0117H330.711ZM345.78 96.0117V93.8827L352.366 87.0586C353.07 86.3173 353.649 85.6678 354.106 85.1102C354.568 84.5463 354.913 84.0109 355.142 83.504C355.37 82.9971 355.484 82.4585 355.484 81.8883C355.484 81.242 355.332 80.6844 355.028 80.2155C354.723 79.7403 354.308 79.376 353.782 79.1225C353.257 78.8627 352.664 78.7328 352.005 78.7328C351.308 78.7328 350.7 78.8754 350.18 79.1605C349.661 79.4456 349.262 79.848 348.983 80.3676C348.704 80.8871 348.565 81.4954 348.565 82.1924H345.761C345.761 81.0075 346.033 79.9716 346.578 79.0845C347.123 78.1974 347.871 77.5099 348.821 77.022C349.772 76.5278 350.852 76.2807 352.062 76.2807C353.285 76.2807 354.362 76.5246 355.294 77.0125C356.231 77.4941 356.963 78.1531 357.489 78.9894C358.015 79.8195 358.278 80.7572 358.278 81.8027C358.278 82.5251 358.142 83.2315 357.869 83.9222C357.603 84.6128 357.137 85.3827 356.472 86.2317C355.807 87.0745 354.882 88.0978 353.697 89.3017L349.829 93.3505V93.4931H358.592V96.0117H345.78ZM368.522 96.3349C367.021 96.3285 365.738 95.9325 364.673 95.1468C363.609 94.3611 362.794 93.2174 362.23 91.7158C361.667 90.2141 361.385 88.4051 361.385 86.2888C361.385 84.1788 361.667 82.3762 362.23 80.8808C362.801 79.3855 363.618 78.2449 364.683 77.4592C365.753 76.6735 367.033 76.2807 368.522 76.2807C370.011 76.2807 371.288 76.6767 372.353 77.4687C373.417 78.2544 374.231 79.395 374.795 80.8903C375.365 82.3793 375.651 84.1788 375.651 86.2888C375.651 88.4114 375.369 90.2236 374.805 91.7253C374.241 93.2206 373.427 94.3643 372.362 95.1563C371.298 95.942 370.018 96.3349 368.522 96.3349ZM368.522 93.7972C369.84 93.7972 370.87 93.1541 371.611 91.8678C372.359 90.5816 372.733 88.7219 372.733 86.2888C372.733 84.673 372.562 83.3076 372.22 82.1924C371.884 81.0709 371.399 80.2218 370.765 79.6452C370.138 79.0623 369.39 78.7708 368.522 78.7708C367.211 78.7708 366.181 79.4171 365.433 80.7097C364.686 82.0023 364.309 83.862 364.302 86.2888C364.302 87.9109 364.47 89.2826 364.806 90.4042C365.148 91.5193 365.633 92.3652 366.26 92.9418C366.888 93.5121 367.642 93.7972 368.522 93.7972ZM378.574 96.0117V93.8827L385.161 87.0586C385.864 86.3173 386.444 85.6678 386.9 85.1102C387.363 84.5463 387.708 84.0109 387.936 83.504C388.164 82.9971 388.278 82.4585 388.278 81.8883C388.278 81.242 388.126 80.6844 387.822 80.2155C387.518 79.7403 387.103 79.376 386.577 79.1225C386.051 78.8627 385.459 78.7328 384.8 78.7328C384.103 78.7328 383.494 78.8754 382.975 79.1605C382.455 79.4456 382.056 79.848 381.777 80.3676C381.498 80.8871 381.359 81.4954 381.359 82.1924H378.555C378.555 81.0075 378.828 79.9716 379.373 79.0845C379.917 78.1974 380.665 77.5099 381.616 77.022C382.566 76.5278 383.646 76.2807 384.857 76.2807C386.079 76.2807 387.157 76.5246 388.088 77.0125C389.026 77.4941 389.758 78.1531 390.284 78.9894C390.809 79.8195 391.072 80.7572 391.072 81.8027C391.072 82.5251 390.936 83.2315 390.664 83.9222C390.398 84.6128 389.932 85.3827 389.267 86.2317C388.601 87.0745 387.676 88.0978 386.491 89.3017L382.623 93.3505V93.4931H391.386V96.0117H378.574ZM401.336 96.2778C400.468 96.2652 399.612 96.1068 398.77 95.8026C397.933 95.4985 397.173 94.9916 396.489 94.2819C395.804 93.5723 395.256 92.6187 394.844 91.4211C394.439 90.2236 394.236 88.7282 394.236 86.9351C394.236 85.237 394.404 83.7289 394.74 82.411C395.082 81.0931 395.573 79.9811 396.213 79.075C396.853 78.1626 397.626 77.4687 398.532 76.9935C399.438 76.5183 400.455 76.2807 401.583 76.2807C402.742 76.2807 403.772 76.5088 404.672 76.965C405.572 77.4212 406.3 78.0517 406.858 78.8564C407.422 79.6611 407.78 80.5767 407.932 81.6031H405.033C404.837 80.7921 404.447 80.13 403.864 79.6167C403.281 79.1035 402.521 78.8469 401.583 78.8469C400.157 78.8469 399.045 79.4678 398.247 80.7097C397.455 81.9516 397.056 83.6782 397.049 85.8896H397.192C397.528 85.3383 397.94 84.8695 398.427 84.483C398.922 84.0901 399.473 83.7891 400.081 83.58C400.696 83.3646 401.342 83.2569 402.02 83.2569C403.148 83.2569 404.168 83.5325 405.08 84.0838C405.999 84.6287 406.731 85.3827 407.276 86.3458C407.821 87.3089 408.093 88.4114 408.093 89.6533C408.093 90.8952 407.811 92.0199 407.247 93.0274C406.69 94.0348 405.904 94.8332 404.89 95.4224C403.877 96.0054 402.692 96.2905 401.336 96.2778ZM401.326 93.8067C402.074 93.8067 402.742 93.623 403.332 93.2555C403.921 92.888 404.387 92.3937 404.729 91.7728C405.071 91.1518 405.242 90.458 405.242 89.6913C405.242 88.9437 405.074 88.2625 404.738 87.6479C404.409 87.0333 403.953 86.5454 403.37 86.1842C402.793 85.8231 402.134 85.6425 401.393 85.6425C400.829 85.6425 400.306 85.7502 399.825 85.9656C399.349 86.1811 398.931 86.4789 398.57 86.859C398.209 87.2392 397.924 87.6764 397.715 88.1706C397.512 88.6585 397.41 89.1749 397.41 89.7198C397.41 90.4485 397.578 91.1233 397.914 91.7443C398.256 92.3652 398.722 92.8658 399.311 93.246C399.907 93.6198 400.579 93.8067 401.326 93.8067Z" fill="#1F2937"/>
<path d="M464.922 83.1356C464.988 83.069 465.067 83.0162 465.154 82.9801C465.241 82.9441 465.335 82.9255 465.429 82.9255C465.523 82.9255 465.616 82.9441 465.703 82.9801C465.79 83.0162 465.869 83.069 465.936 83.1356C466.003 83.2022 466.055 83.2813 466.092 83.3683C466.128 83.4554 466.146 83.5486 466.146 83.6428C466.146 83.737 466.128 83.8303 466.092 83.9173C466.055 84.0044 466.003 84.0834 465.936 84.15L458.767 91.319C458.7 91.3857 458.621 91.4386 458.534 91.4746C458.447 91.5107 458.354 91.5293 458.26 91.5293C458.166 91.5293 458.072 91.5107 457.985 91.4746C457.898 91.4386 457.819 91.3857 457.753 91.319L450.584 84.15C450.449 84.0155 450.374 83.8331 450.374 83.6428C450.374 83.4526 450.449 83.2702 450.584 83.1356C450.718 83.0011 450.901 82.9255 451.091 82.9255C451.281 82.9255 451.464 83.0011 451.598 83.1356L458.26 89.7983L464.922 83.1356Z" fill="#1F2937"/>
</g>
</g>
<g filter="url(#filter3_d_402_3290)">
<rect x="361.291" y="139.254" width="194.088" height="70.0404" rx="15.2938" fill="white"/>
<rect x="362.247" y="140.21" width="192.176" height="68.1286" rx="14.338" stroke="#EBEBEB" stroke-width="1.91173"/>
<path d="M398.714 170.638H395.748C395.634 170.005 395.422 169.447 395.111 168.966C394.801 168.484 394.421 168.075 393.971 167.74C393.521 167.404 393.017 167.15 392.46 166.979C391.908 166.808 391.322 166.723 390.701 166.723C389.58 166.723 388.576 167.005 387.689 167.569C386.808 168.132 386.111 168.959 385.598 170.049C385.091 171.139 384.837 172.47 384.837 174.041C384.837 175.625 385.091 176.962 385.598 178.052C386.111 179.142 386.811 179.965 387.698 180.523C388.585 181.081 389.583 181.359 390.692 181.359C391.307 181.359 391.889 181.277 392.441 181.112C392.998 180.941 393.502 180.691 393.952 180.361C394.402 180.032 394.782 179.63 395.092 179.154C395.409 178.673 395.628 178.122 395.748 177.501L398.714 177.51C398.555 178.467 398.248 179.348 397.792 180.152C397.342 180.951 396.762 181.641 396.052 182.224C395.349 182.801 394.544 183.248 393.638 183.564C392.732 183.881 391.744 184.04 390.673 184.04C388.987 184.04 387.486 183.64 386.168 182.842C384.85 182.037 383.811 180.887 383.05 179.392C382.296 177.897 381.919 176.113 381.919 174.041C381.919 171.963 382.3 170.179 383.06 168.69C383.82 167.195 384.859 166.048 386.177 165.249C387.495 164.445 388.994 164.042 390.673 164.042C391.706 164.042 392.669 164.191 393.562 164.489C394.462 164.781 395.27 165.211 395.986 165.782C396.702 166.346 397.294 167.036 397.763 167.854C398.232 168.665 398.549 169.593 398.714 170.638ZM404.393 164.309V183.773H401.552V164.309H404.393ZM407.768 183.773V169.175H410.61V183.773H407.768ZM409.204 166.922C408.709 166.922 408.285 166.757 407.93 166.428C407.582 166.092 407.407 165.693 407.407 165.23C407.407 164.762 407.582 164.362 407.93 164.033C408.285 163.697 408.709 163.529 409.204 163.529C409.698 163.529 410.119 163.697 410.468 164.033C410.823 164.362 411 164.762 411 165.23C411 165.693 410.823 166.092 410.468 166.428C410.119 166.757 409.698 166.922 409.204 166.922ZM420.277 184.068C418.839 184.068 417.6 183.761 416.561 183.146C415.528 182.525 414.73 181.654 414.166 180.532C413.608 179.405 413.33 178.084 413.33 176.569C413.33 175.074 413.608 173.756 414.166 172.615C414.73 171.475 415.516 170.585 416.523 169.945C417.537 169.305 418.722 168.985 420.078 168.985C420.901 168.985 421.7 169.121 422.473 169.393C423.246 169.666 423.94 170.094 424.554 170.676C425.169 171.259 425.654 172.017 426.008 172.948C426.363 173.873 426.541 174.998 426.541 176.322V177.329H414.936V175.201H423.756C423.756 174.453 423.604 173.791 423.3 173.214C422.995 172.631 422.568 172.172 422.017 171.836C421.472 171.5 420.832 171.332 420.097 171.332C419.298 171.332 418.601 171.529 418.006 171.922C417.416 172.308 416.96 172.815 416.637 173.442C416.32 174.063 416.162 174.738 416.162 175.467V177.13C416.162 178.106 416.333 178.936 416.675 179.62C417.024 180.304 417.508 180.827 418.129 181.188C418.75 181.543 419.476 181.72 420.306 181.72C420.844 181.72 421.335 181.644 421.779 181.492C422.222 181.334 422.606 181.1 422.929 180.789C423.252 180.479 423.499 180.095 423.67 179.639L426.36 180.124C426.145 180.916 425.758 181.61 425.2 182.205C424.649 182.794 423.955 183.254 423.119 183.583C422.289 183.906 421.342 184.068 420.277 184.068ZM432.087 175.105V183.773H429.246V169.175H431.973V171.551H432.154C432.49 170.778 433.016 170.157 433.732 169.688C434.454 169.219 435.363 168.985 436.459 168.985C437.454 168.985 438.325 169.194 439.073 169.612C439.821 170.024 440.401 170.638 440.812 171.456C441.224 172.273 441.43 173.284 441.43 174.488V183.773H438.588V174.83C438.588 173.772 438.313 172.945 437.761 172.349C437.21 171.747 436.453 171.446 435.49 171.446C434.831 171.446 434.245 171.589 433.732 171.874C433.225 172.159 432.822 172.577 432.525 173.129C432.233 173.673 432.087 174.332 432.087 175.105ZM451.608 169.175V171.456H443.634V169.175H451.608ZM445.772 165.677H448.614V179.487C448.614 180.038 448.696 180.453 448.861 180.732C449.026 181.005 449.238 181.191 449.498 181.293C449.764 181.388 450.052 181.435 450.363 181.435C450.591 181.435 450.791 181.42 450.962 181.388C451.133 181.356 451.266 181.331 451.361 181.312L451.874 183.659C451.709 183.723 451.475 183.786 451.171 183.849C450.867 183.919 450.486 183.957 450.03 183.964C449.283 183.976 448.586 183.843 447.939 183.564C447.293 183.286 446.77 182.855 446.371 182.272C445.972 181.689 445.772 180.957 445.772 180.076V165.677Z" fill="#1F2937"/>
<path d="M531.452 170.897C531.519 170.831 531.598 170.778 531.685 170.742C531.772 170.706 531.865 170.687 531.96 170.687C532.054 170.687 532.147 170.706 532.234 170.742C532.321 170.778 532.4 170.831 532.467 170.897C532.533 170.964 532.586 171.043 532.622 171.13C532.658 171.217 532.677 171.31 532.677 171.405C532.677 171.499 532.658 171.592 532.622 171.679C532.586 171.766 532.533 171.845 532.467 171.912L525.298 179.081C525.231 179.147 525.152 179.2 525.065 179.236C524.978 179.272 524.885 179.291 524.791 179.291C524.696 179.291 524.603 179.272 524.516 179.236C524.429 179.2 524.35 179.147 524.283 179.081L517.114 171.912C516.98 171.777 516.904 171.595 516.904 171.405C516.904 171.214 516.98 171.032 517.114 170.897C517.249 170.763 517.431 170.687 517.622 170.687C517.812 170.687 517.994 170.763 518.129 170.897L524.791 177.56L531.452 170.897Z" fill="#1F2937"/>
</g>
<g filter="url(#filter4_d_402_3290)">
<rect x="74.3789" y="139.254" width="280.293" height="69.8053" rx="15.2938" fill="white"/>
<rect x="75.3348" y="140.21" width="278.381" height="67.8936" rx="14.338" stroke="#EBEBEB" stroke-width="1.91173"/>
<path d="M95.6346 164.191H99.1987L105.396 179.322H105.624L111.82 164.191H115.385V183.656H112.59V169.571H112.41L106.669 183.628H104.35L98.6094 169.561H98.4288V183.656H95.6346V164.191ZM123.227 183.979C122.302 183.979 121.465 183.808 120.718 183.466C119.97 183.118 119.377 182.614 118.94 181.955C118.509 181.296 118.294 180.488 118.294 179.531C118.294 178.708 118.452 178.03 118.769 177.497C119.086 176.965 119.514 176.544 120.052 176.233C120.591 175.923 121.193 175.688 121.858 175.53C122.523 175.372 123.201 175.251 123.892 175.169C124.766 175.067 125.476 174.985 126.021 174.922C126.566 174.852 126.962 174.741 127.209 174.589C127.456 174.437 127.58 174.19 127.58 173.848V173.781C127.58 172.951 127.345 172.308 126.876 171.852C126.414 171.396 125.723 171.168 124.804 171.168C123.848 171.168 123.094 171.38 122.542 171.804C121.997 172.223 121.62 172.688 121.411 173.201L118.741 172.593C119.057 171.706 119.52 170.99 120.128 170.445C120.743 169.894 121.449 169.495 122.248 169.248C123.046 168.994 123.886 168.867 124.766 168.867C125.349 168.867 125.967 168.937 126.62 169.077C127.279 169.21 127.893 169.457 128.464 169.818C129.04 170.179 129.512 170.695 129.88 171.367C130.247 172.032 130.431 172.897 130.431 173.962V183.656H127.656V181.66H127.542C127.358 182.028 127.082 182.389 126.715 182.744C126.347 183.099 125.875 183.393 125.299 183.628C124.722 183.862 124.031 183.979 123.227 183.979ZM123.844 181.698C124.63 181.698 125.302 181.543 125.859 181.233C126.423 180.922 126.851 180.517 127.142 180.016C127.44 179.509 127.589 178.967 127.589 178.391V176.509C127.488 176.61 127.291 176.705 127 176.794C126.715 176.876 126.388 176.949 126.021 177.013C125.653 177.07 125.295 177.124 124.947 177.174C124.598 177.219 124.307 177.257 124.073 177.288C123.521 177.358 123.018 177.475 122.561 177.64C122.112 177.805 121.75 178.042 121.478 178.353C121.212 178.657 121.079 179.062 121.079 179.569C121.079 180.273 121.339 180.805 121.858 181.166C122.378 181.521 123.04 181.698 123.844 181.698ZM133.768 183.656V169.058H136.515V171.377H136.667C136.933 170.591 137.402 169.973 138.074 169.523C138.751 169.067 139.518 168.839 140.374 168.839C140.551 168.839 140.76 168.845 141.001 168.858C141.248 168.871 141.441 168.886 141.581 168.906V171.624C141.467 171.592 141.264 171.557 140.972 171.519C140.681 171.475 140.389 171.453 140.098 171.453C139.426 171.453 138.828 171.595 138.302 171.88C137.782 172.159 137.37 172.549 137.066 173.049C136.762 173.544 136.61 174.108 136.61 174.741V183.656H133.768ZM146.205 178.704L146.186 175.235H146.681L152.497 169.058H155.9L149.266 176.091H148.819L146.205 178.704ZM143.592 183.656V164.191H146.434V183.656H143.592ZM152.811 183.656L147.584 176.718L149.542 174.732L156.299 183.656H152.811ZM163.733 183.951C162.294 183.951 161.055 183.644 160.016 183.029C158.984 182.408 158.185 181.537 157.621 180.415C157.064 179.287 156.785 177.966 156.785 176.452C156.785 174.957 157.064 173.639 157.621 172.498C158.185 171.358 158.971 170.467 159.978 169.827C160.992 169.187 162.177 168.867 163.533 168.867C164.357 168.867 165.155 169.004 165.928 169.276C166.701 169.549 167.395 169.976 168.009 170.559C168.624 171.142 169.109 171.899 169.464 172.831C169.818 173.756 169.996 174.881 169.996 176.205V177.212H158.391V175.083H167.211C167.211 174.336 167.059 173.674 166.755 173.097C166.451 172.514 166.023 172.055 165.472 171.719C164.927 171.383 164.287 171.215 163.552 171.215C162.754 171.215 162.057 171.411 161.461 171.804C160.872 172.191 160.415 172.698 160.092 173.325C159.776 173.946 159.617 174.621 159.617 175.349V177.013C159.617 177.988 159.788 178.819 160.13 179.503C160.479 180.187 160.964 180.71 161.585 181.071C162.205 181.426 162.931 181.603 163.761 181.603C164.3 181.603 164.791 181.527 165.234 181.375C165.678 181.217 166.061 180.982 166.384 180.672C166.707 180.361 166.954 179.978 167.126 179.522L169.815 180.007C169.6 180.799 169.213 181.492 168.656 182.088C168.105 182.677 167.411 183.137 166.574 183.466C165.744 183.789 164.797 183.951 163.733 183.951ZM179.515 169.058V171.339H171.541V169.058H179.515ZM173.68 165.56H176.522V179.37C176.522 179.921 176.604 180.336 176.769 180.615C176.933 180.887 177.146 181.074 177.406 181.176C177.672 181.271 177.96 181.318 178.27 181.318C178.499 181.318 178.698 181.302 178.869 181.271C179.04 181.239 179.173 181.214 179.268 181.195L179.782 183.542C179.617 183.606 179.382 183.669 179.078 183.732C178.774 183.802 178.394 183.84 177.938 183.846C177.19 183.859 176.493 183.726 175.847 183.447C175.201 183.168 174.678 182.737 174.279 182.155C173.879 181.572 173.68 180.84 173.68 179.959V165.56ZM182.211 183.656V169.058H185.053V183.656H182.211ZM183.646 166.805C183.152 166.805 182.727 166.64 182.373 166.311C182.024 165.975 181.85 165.576 181.85 165.113C181.85 164.644 182.024 164.245 182.373 163.916C182.727 163.58 183.152 163.412 183.646 163.412C184.14 163.412 184.562 163.58 184.91 163.916C185.265 164.245 185.442 164.644 185.442 165.113C185.442 165.576 185.265 165.975 184.91 166.311C184.562 166.64 184.14 166.805 183.646 166.805ZM191.27 174.988V183.656H188.428V169.058H191.156V171.434H191.336C191.672 170.661 192.198 170.04 192.914 169.571C193.636 169.102 194.545 168.867 195.642 168.867C196.636 168.867 197.508 169.077 198.255 169.495C199.003 169.907 199.583 170.521 199.995 171.339C200.406 172.156 200.612 173.167 200.612 174.371V183.656H197.771V174.713C197.771 173.655 197.495 172.828 196.944 172.232C196.392 171.63 195.635 171.329 194.672 171.329C194.013 171.329 193.427 171.472 192.914 171.757C192.407 172.042 192.005 172.46 191.707 173.011C191.415 173.556 191.27 174.215 191.27 174.988ZM210.096 189.435C208.937 189.435 207.939 189.283 207.103 188.979C206.272 188.675 205.595 188.272 205.069 187.772C204.543 187.271 204.15 186.723 203.89 186.127L206.333 185.12C206.504 185.399 206.732 185.693 207.017 186.004C207.308 186.321 207.701 186.59 208.196 186.812C208.696 187.033 209.339 187.144 210.125 187.144C211.202 187.144 212.092 186.881 212.796 186.355C213.499 185.836 213.851 185.006 213.851 183.865V180.995H213.67C213.499 181.306 213.252 181.651 212.929 182.031C212.612 182.411 212.175 182.741 211.617 183.019C211.06 183.298 210.334 183.438 209.441 183.438C208.287 183.438 207.248 183.168 206.323 182.63C205.404 182.085 204.676 181.283 204.137 180.225C203.605 179.161 203.339 177.852 203.339 176.3C203.339 174.748 203.602 173.417 204.128 172.308C204.66 171.199 205.389 170.35 206.314 169.761C207.239 169.165 208.287 168.867 209.46 168.867C210.366 168.867 211.098 169.02 211.655 169.324C212.213 169.622 212.647 169.97 212.957 170.369C213.274 170.768 213.518 171.12 213.689 171.424H213.898V169.058H216.683V183.979C216.683 185.234 216.391 186.264 215.809 187.068C215.226 187.873 214.437 188.469 213.442 188.855C212.453 189.242 211.338 189.435 210.096 189.435ZM210.068 181.081C210.885 181.081 211.576 180.89 212.14 180.51C212.71 180.124 213.141 179.573 213.432 178.857C213.73 178.134 213.879 177.269 213.879 176.262C213.879 175.28 213.733 174.415 213.442 173.667C213.15 172.92 212.723 172.337 212.159 171.918C211.595 171.494 210.898 171.282 210.068 171.282C209.212 171.282 208.5 171.503 207.929 171.947C207.359 172.384 206.928 172.98 206.637 173.734C206.352 174.488 206.209 175.33 206.209 176.262C206.209 177.219 206.355 178.058 206.646 178.781C206.938 179.503 207.369 180.067 207.939 180.472C208.516 180.878 209.225 181.081 210.068 181.081ZM225.949 166.72V164.191H241.014V166.72H234.94V183.656H232.013V166.72H225.949ZM247.841 183.951C246.403 183.951 245.164 183.644 244.125 183.029C243.092 182.408 242.294 181.537 241.73 180.415C241.172 179.287 240.894 177.966 240.894 176.452C240.894 174.957 241.172 173.639 241.73 172.498C242.294 171.358 243.08 170.467 244.087 169.827C245.101 169.187 246.286 168.867 247.642 168.867C248.465 168.867 249.264 169.004 250.037 169.276C250.81 169.549 251.504 169.976 252.118 170.559C252.733 171.142 253.217 171.899 253.572 172.831C253.927 173.756 254.105 174.881 254.105 176.205V177.212H242.5V175.083H251.32C251.32 174.336 251.168 173.674 250.864 173.097C250.559 172.514 250.132 172.055 249.58 171.719C249.036 171.383 248.396 171.215 247.661 171.215C246.862 171.215 246.165 171.411 245.57 171.804C244.98 172.191 244.524 172.698 244.201 173.325C243.884 173.946 243.726 174.621 243.726 175.349V177.013C243.726 177.988 243.897 178.819 244.239 179.503C244.588 180.187 245.072 180.71 245.693 181.071C246.314 181.426 247.04 181.603 247.87 181.603C248.408 181.603 248.899 181.527 249.343 181.375C249.786 181.217 250.17 180.982 250.493 180.672C250.816 180.361 251.063 179.978 251.234 179.522L253.924 180.007C253.709 180.799 253.322 181.492 252.764 182.088C252.213 182.677 251.519 183.137 250.683 183.466C249.853 183.789 248.906 183.951 247.841 183.951ZM261.058 183.979C260.133 183.979 259.297 183.808 258.549 183.466C257.801 183.118 257.209 182.614 256.772 181.955C256.341 181.296 256.125 180.488 256.125 179.531C256.125 178.708 256.284 178.03 256.6 177.497C256.917 176.965 257.345 176.544 257.884 176.233C258.422 175.923 259.024 175.688 259.689 175.53C260.355 175.372 261.033 175.251 261.723 175.169C262.598 175.067 263.307 174.985 263.852 174.922C264.397 174.852 264.793 174.741 265.04 174.589C265.287 174.437 265.411 174.19 265.411 173.848V173.781C265.411 172.951 265.177 172.308 264.708 171.852C264.245 171.396 263.554 171.168 262.636 171.168C261.679 171.168 260.925 171.38 260.374 171.804C259.829 172.223 259.452 172.688 259.243 173.201L256.572 172.593C256.889 171.706 257.351 170.99 257.96 170.445C258.574 169.894 259.281 169.495 260.079 169.248C260.877 168.994 261.717 168.867 262.598 168.867C263.181 168.867 263.798 168.937 264.451 169.077C265.11 169.21 265.725 169.457 266.295 169.818C266.871 170.179 267.344 170.695 267.711 171.367C268.079 172.032 268.262 172.897 268.262 173.962V183.656H265.487V181.66H265.373C265.189 182.028 264.914 182.389 264.546 182.744C264.179 183.099 263.707 183.393 263.13 183.628C262.553 183.862 261.863 183.979 261.058 183.979ZM261.676 181.698C262.461 181.698 263.133 181.543 263.691 181.233C264.255 180.922 264.682 180.517 264.974 180.016C265.272 179.509 265.42 178.967 265.42 178.391V176.509C265.319 176.61 265.123 176.705 264.831 176.794C264.546 176.876 264.22 176.949 263.852 177.013C263.485 177.07 263.127 177.124 262.778 177.174C262.43 177.219 262.138 177.257 261.904 177.288C261.353 177.358 260.849 177.475 260.393 177.64C259.943 177.805 259.582 178.042 259.309 178.353C259.043 178.657 258.91 179.062 258.91 179.569C258.91 180.273 259.17 180.805 259.689 181.166C260.209 181.521 260.871 181.698 261.676 181.698ZM271.599 183.656V169.058H274.327V171.434H274.508C274.812 170.629 275.309 170.002 276 169.552C276.69 169.096 277.517 168.867 278.48 168.867C279.456 168.867 280.274 169.096 280.933 169.552C281.598 170.008 282.089 170.635 282.406 171.434H282.558C282.906 170.654 283.461 170.033 284.221 169.571C284.981 169.102 285.888 168.867 286.939 168.867C288.264 168.867 289.344 169.283 290.18 170.113C291.023 170.943 291.444 172.194 291.444 173.867V183.656H288.603V174.133C288.603 173.144 288.333 172.428 287.795 171.985C287.256 171.541 286.613 171.32 285.865 171.32C284.94 171.32 284.221 171.605 283.708 172.175C283.195 172.739 282.938 173.464 282.938 174.351V183.656H280.106V173.952C280.106 173.16 279.859 172.523 279.364 172.042C278.87 171.56 278.227 171.32 277.435 171.32C276.896 171.32 276.399 171.462 275.943 171.747C275.493 172.026 275.129 172.416 274.85 172.916C274.577 173.417 274.441 173.997 274.441 174.656V183.656H271.599Z" fill="#1F2937"/>
<path d="M330.745 170.78C330.812 170.714 330.891 170.661 330.978 170.625C331.065 170.589 331.158 170.57 331.253 170.57C331.347 170.57 331.44 170.589 331.527 170.625C331.614 170.661 331.693 170.714 331.76 170.78C331.826 170.847 331.879 170.926 331.915 171.013C331.951 171.1 331.97 171.193 331.97 171.287C331.97 171.382 331.951 171.475 331.915 171.562C331.879 171.649 331.826 171.728 331.76 171.795L324.591 178.964C324.524 179.03 324.445 179.083 324.358 179.119C324.271 179.155 324.178 179.174 324.084 179.174C323.989 179.174 323.896 179.155 323.809 179.119C323.722 179.083 323.643 179.03 323.576 178.964L316.407 171.795C316.273 171.66 316.197 171.478 316.197 171.287C316.197 171.097 316.273 170.915 316.407 170.78C316.542 170.646 316.724 170.57 316.915 170.57C317.105 170.57 317.287 170.646 317.422 170.78L324.084 177.443L330.745 170.78Z" fill="#1F2937"/>
</g>
<defs>
<filter id="filter0_dd_402_3290" x="0.00012207" y="-0.000818253" width="563.936" height="218.799" filterUnits="userSpaceOnUse" color-interpolation-filters="sRGB">
<feFlood flood-opacity="0" result="BackgroundImageFix"/>
<feColorMatrix in="SourceAlpha" type="matrix" values="0 0 0 0 0 0 0 0 0 0 0 0 0 0 0 0 0 0 127 0" result="hardAlpha"/>
<feOffset dy="22.8858"/>
<feGaussianBlur stdDeviation="37.1894"/>
<feComposite in2="hardAlpha" operator="out"/>
<feColorMatrix type="matrix" values="0 0 0 0 0 0 0 0 0 0 0 0 0 0 0 0 0 0 0.12 0"/>
<feBlend mode="normal" in2="BackgroundImageFix" result="effect1_dropShadow_402_3290"/>
<feColorMatrix in="SourceAlpha" type="matrix" values="0 0 0 0 0 0 0 0 0 0 0 0 0 0 0 0 0 0 127 0" result="hardAlpha"/>
<feOffset dy="5.72144"/>
<feGaussianBlur stdDeviation="8.58217"/>
<feComposite in2="hardAlpha" operator="out"/>
<feColorMatrix type="matrix" values="0 0 0 0 0 0 0 0 0 0 0 0 0 0 0 0 0 0 0.08 0"/>
<feBlend mode="normal" in2="effect1_dropShadow_402_3290" result="effect2_dropShadow_402_3290"/>
<feBlend mode="normal" in="SourceGraphic" in2="effect2_dropShadow_402_3290" result="shape"/>
</filter>
<filter id="filter1_d_402_3290" x="66.732" y="48.2781" width="103.233" height="84.1161" filterUnits="userSpaceOnUse" color-interpolation-filters="sRGB">
<feFlood flood-opacity="0" result="BackgroundImageFix"/>
<feColorMatrix in="SourceAlpha" type="matrix" values="0 0 0 0 0 0 0 0 0 0 0 0 0 0 0 0 0 0 127 0" result="hardAlpha"/>
<feOffset dy="3.82346"/>
<feGaussianBlur stdDeviation="3.82346"/>
<feComposite in2="hardAlpha" operator="out"/>
<feColorMatrix type="matrix" values="0 0 0 0 0 0 0 0 0 0 0 0 0 0 0 0 0 0 0.09 0"/>
<feBlend mode="normal" in2="BackgroundImageFix" result="effect1_dropShadow_402_3290"/>
<feBlend mode="normal" in="SourceGraphic" in2="effect1_dropShadow_402_3290" result="shape"/>
</filter>
<filter id="filter2_d_402_3290" x="158.119" y="47.6687" width="338.376" height="85.3349" filterUnits="userSpaceOnUse" color-interpolation-filters="sRGB">
<feFlood flood-opacity="0" result="BackgroundImageFix"/>
<feColorMatrix in="SourceAlpha" type="matrix" values="0 0 0 0 0 0 0 0 0 0 0 0 0 0 0 0 0 0 127 0" result="hardAlpha"/>
<feOffset dy="3.82346"/>
<feGaussianBlur stdDeviation="3.82346"/>
<feComposite in2="hardAlpha" operator="out"/>
<feColorMatrix type="matrix" values="0 0 0 0 0 0 0 0 0 0 0 0 0 0 0 0 0 0 0.09 0"/>
<feBlend mode="normal" in2="BackgroundImageFix" result="effect1_dropShadow_402_3290"/>
<feBlend mode="normal" in="SourceGraphic" in2="effect1_dropShadow_402_3290" result="shape"/>
</filter>
<filter id="filter3_d_402_3290" x="353.644" y="135.43" width="209.382" height="85.3349" filterUnits="userSpaceOnUse" color-interpolation-filters="sRGB">
<feFlood flood-opacity="0" result="BackgroundImageFix"/>
<feColorMatrix in="SourceAlpha" type="matrix" values="0 0 0 0 0 0 0 0 0 0 0 0 0 0 0 0 0 0 127 0" result="hardAlpha"/>
<feOffset dy="3.82346"/>
<feGaussianBlur stdDeviation="3.82346"/>
<feComposite in2="hardAlpha" operator="out"/>
<feColorMatrix type="matrix" values="0 0 0 0 0 0 0 0 0 0 0 0 0 0 0 0 0 0 0.09 0"/>
<feBlend mode="normal" in2="BackgroundImageFix" result="effect1_dropShadow_402_3290"/>
<feBlend mode="normal" in="SourceGraphic" in2="effect1_dropShadow_402_3290" result="shape"/>
</filter>
<filter id="filter4_d_402_3290" x="66.732" y="135.43" width="295.586" height="85.0985" filterUnits="userSpaceOnUse" color-interpolation-filters="sRGB">
<feFlood flood-opacity="0" result="BackgroundImageFix"/>
<feColorMatrix in="SourceAlpha" type="matrix" values="0 0 0 0 0 0 0 0 0 0 0 0 0 0 0 0 0 0 127 0" result="hardAlpha"/>
<feOffset dy="3.82346"/>
<feGaussianBlur stdDeviation="3.82346"/>
<feComposite in2="hardAlpha" operator="out"/>
<feColorMatrix type="matrix" values="0 0 0 0 0 0 0 0 0 0 0 0 0 0 0 0 0 0 0.09 0"/>
<feBlend mode="normal" in2="BackgroundImageFix" result="effect1_dropShadow_402_3290"/>
<feBlend mode="normal" in="SourceGraphic" in2="effect1_dropShadow_402_3290" result="shape"/>
</filter>
</defs>
</svg>
