<svg width="1028" height="652" viewBox="0 0 1028 652" fill="none" xmlns="http://www.w3.org/2000/svg">
<path d="M551.001 176.151C494.964 133.294 447.049 70.4459 391.012 27.5895L387.328 109.263L307.059 68.4076L342.011 143.654L249.971 159.408L288.157 208.6L217.831 223.668L246.241 258.35L193.102 297.857L440.019 372.67L553.521 306.469L551.001 176.151Z" fill="#F4D13B"/>
<path d="M581.955 293.016L430.022 364.9L404.914 249.565C403.912 244.965 406.217 240.281 410.473 238.268L543.631 175.267C549.515 172.483 556.459 175.899 557.844 182.26L581.955 293.016Z" fill="#F953B2"/>
<path d="M575.938 321.131L370.485 418.337C363.966 421.421 356.345 417.187 355.521 410.021L355.306 408.152C354.79 403.671 357.186 399.36 361.263 397.431L581.954 293.016L584.06 305.582C585.136 311.998 581.819 318.349 575.938 321.131Z" fill="#F953B2"/>
<path d="M509.162 261.205C510.978 258.524 512.809 255.416 513.336 253.123C505.716 251.372 502.832 257.72 501.731 261.103C501.582 261.129 501.433 261.15 501.284 261.18C501.232 261.19 501.182 261.204 501.13 261.215C498.818 258.508 493.73 253.756 487.362 258.282C488.709 260.176 491.534 262.319 494.208 264.089C487.693 268.401 484.08 276.359 485.696 284.495C487.83 295.238 498.268 302.217 509.011 300.084C519.754 297.95 526.733 287.511 524.6 276.768C522.999 268.712 516.729 262.772 509.162 261.205Z" fill="#6966ED"/>
<path d="M396.48 252.862C387.535 257.061 378.59 261.26 369.645 265.459C357.948 270.949 346.251 276.44 334.554 281.931C333.257 282.54 331.951 283.277 330.521 283.492C324.202 284.445 320.313 276.666 324.898 272.189C326.989 270.147 325.39 266.904 322.52 267.207C316.287 267.865 312.751 260.158 317.206 255.804C319.296 253.761 317.699 250.518 314.828 250.821C307.429 251.603 304.823 241.494 311.284 238.222C314.557 236.564 312.154 231.505 308.815 233.073C300.396 237.025 291.978 240.977 283.559 244.929C280.309 246.454 276.42 249.116 272.719 247.814C268.993 246.503 267.189 242.152 269.033 238.603C269.81 237.108 271.09 236.192 272.538 235.439C289.737 226.49 306.867 217.405 324.03 208.388C330.571 204.952 337.113 201.515 343.654 198.079C344.657 197.552 345.618 196.181 345.225 194.973C344.212 191.858 343.198 188.743 342.184 185.628C341.052 182.148 339.214 178.264 340.01 174.546C341.327 168.399 347.989 165.062 353.765 167.534C356.966 168.903 359.048 172.313 361.158 174.941C363.514 177.876 365.871 180.811 368.227 183.745C368.934 184.626 370.614 185.137 371.638 184.473C376.105 181.581 380.662 178.823 385.224 176.084C396.994 169.017 408.941 162.243 421.025 155.727C437.867 146.646 454.987 138.071 472.402 130.141C491.984 121.223 511.952 113.097 532.364 106.275C552.27 99.6224 572.711 94.1977 593.51 91.2296C612.072 88.5808 631.209 87.8984 649.664 91.7098C657.586 93.346 665.809 96.1112 673.143 99.9358C681.737 104.418 689.533 110.96 696.306 118.117C713.514 136.298 723.909 159.749 723.361 184.98C722.871 207.603 714.552 229.525 702.142 248.251C691.02 265.034 676.253 280.436 658.467 290.171C654.779 292.19 650.949 293.942 646.979 295.329C643.517 296.538 646.006 301.68 649.447 300.478C668.199 293.929 684.202 279.965 696.788 264.956C711.615 247.276 722.625 226.019 727.087 203.304C731.785 179.39 727.933 154.435 715.254 133.512C703.823 114.649 686.857 98.4136 666.039 90.5441C648.565 83.9384 629.547 82.6538 611.045 83.7242C590.094 84.9364 569.386 89.3271 549.251 95.0964C528.023 101.178 507.269 108.873 486.952 117.5C468.185 125.47 449.769 134.259 431.671 143.643C417.658 150.908 403.829 158.531 390.211 166.513C383.424 170.491 376.672 174.54 370.037 178.769C369.748 178.953 369.458 179.138 369.17 179.324C370.307 179.567 371.444 179.81 372.581 180.052C370.265 177.167 367.948 174.282 365.632 171.398C362.742 167.798 360.154 164.036 355.728 162.171C348.9 159.294 340.528 161.925 336.583 168.196C334.58 171.379 333.762 175.125 334.251 178.854C334.466 180.492 335.068 182.063 335.577 183.627C336.923 187.763 338.269 191.9 339.615 196.036C340.138 195.001 340.662 193.966 341.186 192.93C324.218 201.844 307.249 210.758 290.281 219.672C283.49 223.24 276.717 226.844 269.907 230.375C263.103 233.904 260.271 242.295 264.917 248.83C267.623 252.636 272.501 254.451 277.06 253.75C278.883 253.47 280.51 252.668 282.155 251.895C291.865 247.337 301.574 242.779 311.284 238.222L308.815 233.073C303.58 235.725 300.544 241.67 302.185 247.453C303.923 253.581 309.674 257.089 315.891 256.432C315.098 254.772 314.306 253.111 313.513 251.45C309.588 255.288 308.195 261.121 310.749 266.148C313.207 270.984 318.295 273.376 323.582 272.818C322.79 271.157 321.997 269.497 321.204 267.836C316.507 272.423 315.638 279.953 320.13 285.062C323.858 289.303 329.902 290.276 334.966 288.045C338.348 286.556 341.667 284.9 345.012 283.33C359.158 276.69 373.304 270.049 387.449 263.409C391.283 261.61 395.116 259.81 398.949 258.011C402.274 256.45 399.815 251.297 396.48 252.862Z" fill="black"/>
<path d="M243.879 230.236C261.644 233.252 280.799 230.584 295.886 220.294C309.135 211.257 316.393 196.995 318.331 181.328C321.69 154.183 310.338 124.372 288.256 107.82C276.09 98.7011 261.063 94.4835 245.936 95.1951C228.354 96.0222 208.013 101.945 196.594 116.077C183.268 132.569 181.812 155.673 183.125 175.945C183.832 186.859 185.363 197.675 187.662 208.364C190.119 219.782 193.229 231.279 193.527 243.021C194.155 267.739 178.614 285.998 160.328 300.654C142.207 315.179 122.7 327.902 104.544 342.404C70.0446 369.959 39.0694 404.964 30.9915 449.782C23.9021 489.117 38.2485 531.534 69.0858 557.272C102.16 584.876 150.808 587.217 186.89 564.163C223.827 540.563 243.427 499.724 263.752 462.564C274.867 442.243 286.884 419.99 304.183 404.176C312.425 396.642 323.433 392.397 332.892 400.349C339.285 405.723 342.991 415.496 353.149 412.597C361.161 410.31 364.139 400.89 359.94 394.054L355.189 397.136C364.942 409.033 383.529 396.268 375.379 383.044L370.628 386.125C375.579 392.147 384.834 392.91 389.999 386.618C394.074 381.654 393.17 375.418 389.734 370.459C384.404 362.766 378.862 355.213 373.428 347.593L369.613 351.779C375.741 356.384 381.869 360.99 387.997 365.596C394.471 370.462 402.187 377.4 410.327 370.892C415.115 367.064 416.38 360.164 413.261 354.9C411.872 352.554 409.743 351.081 407.619 349.492C400.509 344.174 393.399 338.855 386.289 333.536C380.393 329.125 374.496 324.715 368.6 320.304L368.197 325.217C372.949 322.993 379.012 321.215 381.858 316.475C386.077 309.449 382.096 300.101 374.16 298.193C369.377 297.043 363.527 298.902 358.8 299.675C353.798 300.492 348.796 301.304 343.796 302.127C312.579 307.267 281.525 315.654 252.712 328.862C224.004 342.021 195.49 361.092 179.869 389.365C161.955 421.788 167.305 459.642 178.034 493.601C191.066 534.849 216.488 572.352 253.549 595.527C293.14 620.285 340.616 623.39 384.78 610.158C431.973 596.019 473.563 568.453 516.404 544.959C538.695 532.735 561.572 521.052 585.827 513.216C606.536 506.526 628.946 502.019 650.143 509.327C659.739 512.636 668.381 518.348 674.399 526.615C681.222 535.989 684.071 547.595 685.401 558.939C688.476 585.18 685.132 612.24 679.769 637.96C677.055 650.977 672.998 663.681 670.336 676.695C668.264 686.825 667.915 697.933 673.877 706.867C683.861 721.829 705.909 725.492 721.782 719.106C730.635 715.544 738.095 708.962 742.531 700.508C743.414 698.826 743.026 696.99 741.174 696.19C737.654 694.67 734.192 694.825 730.797 696.578C729.298 697.352 728.957 698.881 729.457 700.387C736.465 721.512 764.622 728.223 784.255 730.656C800.461 732.665 820.7 733.543 835.52 725.405C841.126 722.327 845.65 717.481 846.368 710.9C847.304 702.324 842.058 694.021 837.056 687.556C832.728 681.965 827.713 677.176 824.339 670.873C821.095 664.813 819.08 658.228 817.92 651.468C815.569 637.778 816.563 623.769 817.541 609.997C822.078 546.084 819.153 478.603 785.462 422.161C770.352 396.848 749.562 374.96 723.616 360.654C696.476 345.689 665.468 338.978 634.62 338.628C602.19 338.259 570.344 344.882 539.841 355.593C523.53 361.321 507.632 368.177 492.066 375.686C480.761 381.14 468.679 384.594 457.337 389.937C447.343 394.645 436.854 401.85 435.435 413.786C434.147 424.626 443.579 430.486 453.322 427.121C467.591 422.192 477.982 407.543 488.347 397.324C499.65 386.181 511.703 375.785 524.523 366.422C577.941 327.404 648.795 307.108 712.809 331.221C776.806 355.329 820.616 412.482 859.304 465.985C869.841 480.557 880.186 495.265 890.674 509.872C895.914 517.17 901.18 524.452 906.541 531.662C910.895 537.517 915.55 543.529 921.946 547.278C936.469 555.791 954.451 551.639 970.26 554.736C985.374 557.698 982.245 573.319 976.373 583.061C970.413 592.949 962.133 600.286 953.807 608.086C942.532 618.651 930.971 631.215 916.723 637.775C911.076 640.375 904.541 641.226 899.091 637.964C897.171 636.815 895.257 635.531 893.574 634.049C893.136 633.663 892.175 632.307 891.705 632.153C891.701 632.151 891.331 631.605 891.348 631.602C887.091 632.158 891.375 633.959 891.494 634.147C893.079 636.662 894.767 637.207 894.092 640.64C893.599 643.145 892.024 645.49 890.551 647.515C887.517 651.686 883.704 655.298 879.734 658.569C876.82 660.969 873.252 663.921 869.224 663.614C865.203 663.307 861.497 659.775 858.39 657.515C850.911 652.073 843.432 646.631 835.953 641.189C832.974 639.021 829.708 643.705 832.678 645.866C840.406 651.49 848.135 657.113 855.863 662.737C861.503 666.841 867.099 670.926 874.372 668.52C879.55 666.807 884.001 662.671 887.893 658.964C891.65 655.386 895.296 651.43 897.723 646.809C899.686 643.071 900.898 638.574 899.093 634.521C897.441 630.811 892.971 626.82 888.655 628.328C879.282 631.601 893.864 641.572 896.924 643.289C908.177 649.604 920.733 642.934 930.144 636.251C942.852 627.225 953.817 615.825 965.276 605.319C977.266 594.326 998.163 568.923 981.002 553.812C975.414 548.892 968.455 548.642 961.367 548.19C952.76 547.641 943.902 547.619 935.399 546.092C925.972 544.4 919.44 539.009 913.675 531.64C908.308 524.78 903.281 517.632 898.186 510.569C876.769 480.876 856.054 450.651 833.312 421.939C793.262 371.377 740.797 323.521 673.97 316.192C608.118 308.97 544.976 338.453 496.799 381.556C484.771 392.317 474.468 405.208 461.896 415.299C457.731 418.641 447.925 426.375 442.671 420.735C438.302 416.046 442.777 407.686 446.297 403.943C454.785 394.915 468.764 391.293 480.009 387.101C494.389 381.74 507.935 374.304 522.133 368.454C583.021 343.365 655.089 332.168 716.163 363.117C773.779 392.313 802.818 455.474 810.723 516.924C815.143 551.282 813.055 585.368 811.186 619.787C810.453 633.275 810.358 647.212 814.053 660.321C815.758 666.371 818.212 672.162 821.626 677.45C825.382 683.269 830.473 687.988 834.467 693.628C838.576 699.431 843.452 708.174 838.997 715.087C835.146 721.063 826.79 723.255 820.269 724.502C802.775 727.848 783.127 726.34 766.132 721.129C753.503 717.256 739.12 711.526 734.605 697.918L733.265 701.727C735.328 700.662 737.113 700.647 739.211 701.553L737.853 697.234C728.275 715.485 704.399 721.968 686.73 711.265C677.498 705.673 674.025 696.38 674.751 685.862C675.632 673.103 680.464 660.535 683.328 648.12C688.857 624.151 692.576 599.636 692.077 574.979C691.679 555.328 689.178 533.678 675.2 518.62C646.075 487.246 597.045 501.53 563.243 515.545C520.151 533.412 481.259 559.68 439.912 581.001C399.394 601.895 354.549 618.139 308.35 610.47C265.034 603.28 227.757 575.072 204.68 538.298C193.904 521.127 185.981 502.219 180.77 482.648C176.026 464.828 172.292 445.567 174.01 427.066C176.895 395.984 196.399 370.995 221.144 353.35C246.832 335.032 277.268 323.567 307.605 315.626C320.294 312.305 333.138 309.657 346.08 307.539C351.567 306.641 357.054 305.745 362.542 304.848C367.891 303.974 378.131 301.312 377.902 310.322C377.755 316.077 370.029 318.055 365.728 320.069C363.735 321.002 363.636 323.719 365.325 324.982C375.956 332.935 386.587 340.887 397.218 348.84C400.662 351.416 407.908 355.033 409.062 359.59C410.86 366.687 402.88 369.387 397.933 365.926C395.423 364.17 393.02 362.234 390.572 360.393C384.677 355.963 378.783 351.532 372.888 347.102C370.154 345.047 367.282 348.774 369.074 351.287C372.959 356.735 376.844 362.182 380.729 367.63C382.38 369.946 384.255 372.209 385.729 374.642C390.241 382.089 380.726 389.419 374.982 382.433C372.981 380 368.493 382.695 370.23 385.514C374.876 393.051 365.318 400.489 359.542 393.443C357.544 391.005 353.059 393.704 354.791 396.524C357.95 401.667 354.419 409.202 347.666 407.053C343.563 405.748 340.801 399.908 337.696 397.027C331.62 391.389 323.822 388.742 315.656 390.928C307.162 393.202 300.518 399.298 294.789 405.682C287.449 413.861 280.968 422.788 275.028 432.024C252.356 467.273 237.328 507.732 208.319 538.688C194.912 552.994 178.544 564.994 159.56 570.59C139.559 576.487 117.677 575.403 98.2539 567.903C61.399 553.673 38.0551 516.569 35.1844 477.961C32.0242 435.46 55.075 395.709 84.8082 367.064C101.136 351.334 119.478 337.797 137.771 324.473C153.95 312.689 171.188 301.427 183.958 285.765C190.062 278.279 195.081 269.662 197.43 260.236C199.916 250.262 199.508 239.974 197.924 229.893C196.214 219.016 193.209 208.392 191.345 197.543C189.629 187.56 188.578 177.331 188.437 167.201C188.163 147.568 191.788 124.304 209.016 112.119C216.65 106.72 226.703 103.837 235.797 102.118C243.486 100.664 251.346 100.35 259.094 101.537C286.874 105.793 306.187 130.02 311.581 156.508C314.074 168.747 313.877 181.857 309.647 193.701C303.575 210.703 287.926 221.212 270.665 224.505C261.94 226.17 253.082 226.03 244.346 224.546C240.724 223.931 240.279 229.624 243.879 230.236Z" fill="black"/>
<path d="M273.812 169.193C272.02 175.467 282.967 175.524 281.366 168.983C280.273 164.517 274.956 165.207 273.812 169.193Z" fill="black"/>
<path d="M272.026 168.539C271.659 169.852 271.605 171.127 272.066 172.421C272.394 173.343 273.072 174.154 273.869 174.713C275.409 175.79 277.565 176.09 279.351 175.524C280.485 175.164 281.427 174.6 282.214 173.7C282.914 172.9 283.304 171.84 283.405 170.79C283.664 168.108 282.149 164.984 279.41 164.237C276.208 163.363 272.955 165.402 272.026 168.539C271.743 169.491 272.137 170.658 273.159 170.981C274.091 171.275 275.298 170.868 275.601 169.847C275.676 169.594 275.765 169.345 275.878 169.105C275.891 169.075 275.932 168.963 275.952 168.952C275.969 168.943 275.689 169.413 275.845 169.168C275.918 169.052 275.987 168.934 276.066 168.822C276.128 168.734 276.193 168.648 276.261 168.565C276.554 168.206 275.956 168.854 276.224 168.602C276.403 168.434 276.58 168.271 276.78 168.128C277.116 167.887 276.44 168.312 276.686 168.188C276.786 168.138 276.88 168.079 276.981 168.03C277.08 167.981 277.181 167.94 277.283 167.897C277.673 167.731 276.811 168.015 277.226 167.914C277.413 167.869 277.597 167.834 277.787 167.805C278.224 167.739 277.31 167.798 277.664 167.807C277.782 167.809 277.898 167.809 278.015 167.82C278.12 167.829 278.223 167.848 278.327 167.86C278.604 167.893 277.783 167.7 278.169 167.831C278.269 167.864 278.369 167.894 278.468 167.932C278.512 167.95 278.554 167.97 278.598 167.987C278.927 168.117 278.246 167.778 278.415 167.885C278.59 167.996 278.754 168.117 278.925 168.233C279.129 168.371 278.738 168.067 278.733 168.053C278.742 168.078 278.818 168.136 278.841 168.16C278.932 168.253 279.017 168.351 279.097 168.453C279.138 168.506 279.174 168.564 279.216 168.615C279.354 168.783 278.985 168.219 279.086 168.413C279.145 168.527 279.215 168.635 279.272 168.75C279.325 168.856 279.373 168.965 279.417 169.076C279.441 169.133 279.461 169.191 279.483 169.248C279.614 169.581 279.361 168.787 279.446 169.145C279.5 169.372 279.559 169.596 279.595 169.828C279.612 169.936 279.623 170.044 279.636 170.153C279.688 170.575 279.64 169.638 279.63 170.056C279.626 170.24 279.621 170.422 279.597 170.604C279.586 170.691 279.554 170.79 279.552 170.876C279.552 170.906 279.697 170.322 279.621 170.552C279.603 170.607 279.59 170.665 279.573 170.721C279.527 170.867 279.466 171.004 279.409 171.144C279.313 171.381 279.71 170.629 279.495 170.975C279.447 171.053 279.4 171.129 279.348 171.203C279.301 171.269 279.25 171.332 279.201 171.396C278.985 171.674 279.535 171.06 279.351 171.235C279.228 171.352 279.108 171.467 278.973 171.571C278.919 171.613 278.82 171.659 278.779 171.711C278.761 171.734 279.247 171.426 279.052 171.533C279.021 171.55 278.991 171.57 278.96 171.587C278.821 171.668 278.676 171.74 278.528 171.803C278.453 171.835 278.377 171.862 278.302 171.893C277.997 172.017 278.843 171.736 278.487 171.831C278.328 171.874 278.171 171.914 278.009 171.944C277.847 171.973 277.684 171.991 277.52 172.007C277.154 172.045 277.971 172 277.756 171.995C277.664 171.993 277.573 171.997 277.481 171.995C277.327 171.99 277.172 171.978 277.018 171.959C276.938 171.949 276.857 171.937 276.777 171.922C276.338 171.845 277.172 172.026 276.958 171.964C276.655 171.877 276.375 171.77 276.085 171.645C275.894 171.562 276.585 171.925 276.361 171.788C276.324 171.765 276.285 171.744 276.248 171.722C276.174 171.677 276.102 171.629 276.031 171.579C275.961 171.529 275.895 171.473 275.826 171.422C275.575 171.233 276.235 171.832 275.958 171.541C275.838 171.415 275.733 171.283 275.626 171.147C275.433 170.9 275.912 171.649 275.724 171.29C275.683 171.211 275.642 171.134 275.606 171.053C275.567 170.965 275.445 170.611 275.575 171.009C275.707 171.41 275.591 171.045 275.569 170.948C275.548 170.854 275.531 170.759 275.518 170.664C275.504 170.568 275.478 170.159 275.501 170.589C275.525 171.022 275.51 170.599 275.514 170.497C275.519 170.386 275.528 170.275 275.542 170.165C275.556 170.049 275.579 169.935 275.596 169.82C275.63 169.591 275.461 170.372 275.542 170.068C275.561 169.994 275.58 169.921 275.601 169.847C275.867 168.891 275.5 167.731 274.467 167.405C273.548 167.115 272.312 167.513 272.026 168.539Z" fill="black"/>
<path d="M301.538 165.435C299.745 171.709 310.693 171.766 309.092 165.225C307.999 160.759 302.681 161.449 301.538 165.435Z" fill="black"/>
<path d="M299.75 164.782C299.384 166.095 299.329 167.37 299.79 168.663C300.119 169.585 300.796 170.397 301.594 170.955C303.134 172.033 305.29 172.333 307.076 171.766C308.21 171.407 309.151 170.843 309.939 169.943C310.639 169.143 311.028 168.083 311.13 167.033C311.389 164.35 309.874 161.227 307.135 160.479C303.932 159.606 300.679 161.645 299.75 164.782C299.468 165.733 299.861 166.901 300.883 167.223C301.816 167.518 303.023 167.111 303.325 166.09C303.4 165.836 303.49 165.588 303.602 165.348C303.616 165.318 303.657 165.206 303.677 165.195C303.693 165.186 303.413 165.656 303.569 165.411C303.643 165.295 303.712 165.177 303.791 165.064C303.853 164.976 303.918 164.891 303.986 164.807C304.279 164.449 303.68 165.097 303.949 164.844C304.127 164.676 304.305 164.514 304.504 164.371C304.84 164.13 304.165 164.555 304.411 164.43C304.51 164.38 304.605 164.321 304.705 164.272C304.804 164.224 304.906 164.183 305.007 164.139C305.398 163.974 304.536 164.257 304.951 164.157C305.138 164.112 305.322 164.077 305.511 164.048C305.948 163.982 305.035 164.041 305.389 164.049C305.506 164.052 305.623 164.052 305.74 164.062C305.845 164.071 305.947 164.091 306.052 164.103C306.329 164.135 305.508 163.943 305.894 164.073C305.994 164.107 306.094 164.136 306.193 164.175C306.236 164.192 306.279 164.212 306.323 164.23C306.652 164.359 305.97 164.021 306.14 164.128C306.315 164.239 306.479 164.36 306.65 164.475C306.854 164.614 306.463 164.31 306.458 164.296C306.467 164.321 306.543 164.378 306.566 164.403C306.657 164.496 306.742 164.594 306.822 164.696C306.863 164.749 306.899 164.806 306.941 164.858C307.079 165.026 306.709 164.461 306.811 164.656C306.87 164.77 306.939 164.877 306.996 164.992C307.049 165.099 307.098 165.208 307.142 165.318C307.165 165.376 307.185 165.434 307.208 165.491C307.339 165.824 307.086 165.029 307.17 165.387C307.224 165.615 307.283 165.839 307.32 166.071C307.337 166.179 307.347 166.287 307.361 166.395C307.413 166.817 307.365 165.881 307.355 166.299C307.351 166.483 307.345 166.664 307.322 166.847C307.311 166.934 307.278 167.032 307.277 167.119C307.276 167.149 307.422 166.565 307.346 166.795C307.327 166.85 307.315 166.908 307.298 166.964C307.252 167.109 307.19 167.246 307.133 167.387C307.038 167.623 307.435 166.871 307.22 167.218C307.172 167.295 307.125 167.372 307.072 167.446C307.025 167.512 306.975 167.574 306.925 167.638C306.71 167.917 307.26 167.303 307.075 167.478C306.952 167.594 306.832 167.71 306.698 167.814C306.644 167.855 306.545 167.902 306.504 167.954C306.486 167.976 306.972 167.669 306.777 167.775C306.746 167.792 306.716 167.812 306.685 167.83C306.545 167.91 306.401 167.982 306.253 168.046C306.178 168.078 306.102 168.104 306.027 168.135C305.722 168.26 306.567 167.978 306.212 168.074C306.053 168.117 305.895 168.157 305.733 168.186C305.571 168.216 305.408 168.234 305.244 168.25C304.879 168.287 305.695 168.243 305.48 168.238C305.389 168.236 305.297 168.24 305.206 168.237C305.051 168.233 304.897 168.221 304.743 168.201C304.662 168.191 304.581 168.179 304.501 168.165C304.062 168.088 304.896 168.268 304.683 168.207C304.379 168.12 304.099 168.013 303.81 167.887C303.619 167.805 304.31 168.168 304.085 168.03C304.048 168.007 304.01 167.987 303.973 167.964C303.899 167.919 303.826 167.872 303.756 167.822C303.685 167.772 303.62 167.716 303.551 167.664C303.299 167.476 303.959 168.075 303.683 167.784C303.563 167.658 303.458 167.526 303.351 167.389C303.157 167.142 303.637 167.891 303.449 167.532C303.408 167.454 303.366 167.376 303.33 167.295C303.291 167.207 303.169 166.854 303.3 167.252C303.431 167.653 303.316 167.288 303.294 167.191C303.273 167.097 303.255 167.002 303.242 166.906C303.229 166.811 303.203 166.401 303.226 166.831C303.249 167.264 303.235 166.841 303.239 166.739C303.244 166.628 303.253 166.518 303.266 166.408C303.28 166.292 303.303 166.178 303.321 166.062C303.355 165.834 303.186 166.615 303.266 166.31C303.286 166.237 303.305 166.163 303.325 166.09C303.592 165.134 303.224 163.974 302.192 163.648C301.272 163.358 300.036 163.756 299.75 164.782Z" fill="black"/>
<path d="M293.741 169.872C292.469 171.057 291.456 172.495 291.456 174.302C291.456 175.962 292.125 177.47 293.065 178.808C294.742 181.196 297.26 182.742 299.39 184.672C300.239 185.441 301.368 186.442 301.591 187.616C301.825 188.849 300.798 188.901 299.803 188.952C296.725 189.107 293.593 188.306 290.952 186.729C290.07 186.202 288.92 186.312 288.301 187.196C287.744 187.992 287.883 189.318 288.769 189.847C291.901 191.718 295.494 192.813 299.161 192.753C300.846 192.726 302.702 192.62 304.001 191.399C305.286 190.19 305.691 188.28 305.257 186.603C304.423 183.38 301.281 181.31 298.854 179.316C297.767 178.423 296.662 177.453 295.906 176.251C295.073 174.926 295.053 173.846 296.203 172.774C297.992 171.107 295.538 168.198 293.741 169.872Z" fill="black"/>
<path d="M356.1 362.258C360.242 369.051 364.383 375.844 368.525 382.637C369.113 383.601 369.701 384.566 370.289 385.531C371.091 386.845 372.609 387.585 374.098 386.871C375.381 386.255 376.245 384.385 375.438 383.062C371.296 376.269 367.155 369.476 363.013 362.683C362.425 361.718 361.837 360.754 361.249 359.789C360.447 358.475 358.929 357.735 357.44 358.449C356.157 359.065 355.293 360.934 356.1 362.258Z" fill="black"/>
<path d="M340.824 372.492C344.799 379.374 348.773 386.257 352.748 393.139C353.317 394.125 353.886 395.11 354.455 396.096C355.225 397.429 356.799 398.139 358.264 397.436C359.573 396.807 360.379 394.969 359.604 393.627C355.629 386.745 351.655 379.862 347.68 372.98C347.111 371.994 346.542 371.008 345.973 370.023C345.203 368.69 343.629 367.98 342.164 368.683C340.855 369.311 340.049 371.15 340.824 372.492Z" fill="black"/>
<path d="M244.406 227.492C244.406 227.492 253.06 238.666 263.72 246.047C261.696 241.645 260.901 234.287 274.858 228.878C285.092 223.318 286.497 222.172 286.497 222.172C286.497 222.172 259.995 233.188 244.406 227.492Z" fill="black"/>
<path d="M242.228 229.339C247.808 236.528 254.626 243.184 262.082 248.386C264.457 250.043 267.462 247.392 266.293 244.812C266.133 244.458 266.009 244.088 265.85 243.734C265.687 243.37 266.003 244.331 265.813 243.609C265.752 243.378 265.689 243.149 265.638 242.915C265.546 242.493 265.512 242.067 265.44 241.643C265.371 241.243 265.41 242.231 265.439 241.461C265.449 241.202 265.455 240.943 265.479 240.684C265.502 240.452 265.55 240.223 265.574 239.992C265.614 239.596 265.424 240.529 265.537 240.14C265.566 240.04 265.586 239.937 265.618 239.838C265.705 239.564 265.789 239.293 265.894 239.025C265.969 238.834 266.312 238.122 266.028 238.657C266.296 238.151 266.617 237.67 266.965 237.216C267.034 237.125 267.646 236.413 267.355 236.726C267.621 236.44 267.907 236.17 268.198 235.908C271.192 233.216 275.087 232.014 278.566 230.1C281.048 228.734 283.531 227.36 285.954 225.89C286.757 225.404 287.611 224.938 288.343 224.349C290.951 222.247 288.177 218.389 285.262 219.598C284.38 219.963 283.484 220.296 282.587 220.623C281.596 220.984 280.598 221.328 279.598 221.664C278.944 221.883 279.867 221.582 279.184 221.799C278.867 221.899 278.552 222.001 278.235 222.1C277.514 222.325 276.792 222.544 276.068 222.755C269.665 224.623 262.587 226.15 256.219 226.273C254.281 226.31 252.338 226.235 250.413 225.993C248.465 225.749 247.325 225.504 245.386 224.811C241.923 223.572 239.962 228.936 243.424 230.173C250.484 232.698 258.362 232.236 265.638 231.031C271.94 229.986 278.121 228.233 284.136 226.102C285.343 225.675 286.548 225.237 287.731 224.746L284.65 219.995C284.552 220.074 284.441 220.165 284.33 220.221C283.734 220.522 284.969 219.826 284.355 220.204C284.065 220.383 283.777 220.564 283.486 220.741C280.808 222.365 278.061 223.876 275.315 225.38C271.472 227.486 267.287 228.835 264.067 231.963C261.851 234.116 260.271 236.733 259.836 239.823C259.479 242.362 260.099 244.974 261.145 247.281C262.549 246.09 263.953 244.899 265.356 243.708C258.275 238.767 251.878 232.47 246.582 225.645C244.324 222.736 239.978 226.439 242.228 229.339Z" fill="black"/>
<path d="M307.306 240.23C314.003 236.722 320.7 233.214 327.396 229.707C328.335 229.215 329.274 228.723 330.214 228.231C331.578 227.516 332.237 225.847 331.553 224.422C330.903 223.067 329.116 222.364 327.745 223.082C321.048 226.59 314.351 230.098 307.654 233.605C306.715 234.097 305.776 234.589 304.837 235.081C303.473 235.796 302.814 237.465 303.497 238.89C304.148 240.245 305.935 240.948 307.306 240.23Z" fill="black"/>
<path d="M315.226 257.329C321.923 253.822 328.62 250.314 335.316 246.806C336.255 246.314 337.194 245.823 338.133 245.331C339.498 244.616 340.157 242.946 339.473 241.522C338.823 240.167 337.036 239.464 335.665 240.182C328.968 243.69 322.271 247.197 315.574 250.705C314.635 251.197 313.696 251.689 312.757 252.181C311.393 252.895 310.734 254.565 311.417 255.989C312.068 257.344 313.855 258.048 315.226 257.329Z" fill="black"/>
<path d="M322.1 273.795C328.797 270.287 335.494 266.779 342.19 263.272C343.129 262.78 344.068 262.288 345.007 261.796C346.372 261.081 347.031 259.412 346.347 257.987C345.697 256.632 343.91 255.929 342.539 256.647C335.842 260.155 329.145 263.663 322.448 267.17C321.509 267.662 320.57 268.154 319.631 268.646C318.267 269.361 317.608 271.03 318.291 272.455C318.942 273.81 320.729 274.513 322.1 273.795Z" fill="black"/>
<path d="M209.012 207.826C212.404 202.732 213.567 196.506 214.374 190.44C207.91 189.239 203.07 183.526 200.833 177.344C199.865 174.667 199.279 171.753 199.886 168.972C200.982 163.955 206.05 160.355 211.183 160.207C216.316 160.059 221.246 162.94 224.353 167.028C227.461 171.116 228.911 176.272 229.31 181.391C233.756 177.109 233.58 169.949 232.125 163.95C230.669 157.952 228.239 151.894 229.276 145.808C229.476 144.638 229.819 143.456 230.553 142.523C234.086 138.026 238.173 142.57 241.363 144.141C245.217 146.039 250.28 143.661 253.179 140.849C256.691 137.441 258.448 132.501 258.694 127.613C258.746 126.566 258.723 125.465 258.214 124.549C257.706 123.632 256.57 122.986 255.59 123.357C254.482 123.777 254.134 125.181 254.179 126.365C254.384 131.776 259.354 135.944 264.54 137.501C269.092 138.869 274.136 138.756 278.491 136.854C282.847 134.952 286.434 131.202 287.812 126.653C288.762 123.519 288.569 119.846 286.494 117.313C285.822 116.493 284.897 115.788 283.838 115.742C282.779 115.697 281.656 116.548 281.723 117.606C281.747 117.984 281.91 118.338 282.081 118.677C285.269 124.981 292.324 129.117 299.382 128.82C322.346 127.853 316.815 100.593 305.295 89.4747C297.525 81.976 287.091 77.8609 276.623 75.2117C257.335 70.3306 236.343 69.9782 218.052 77.8081C198.616 86.1285 183.555 103.457 176.697 123.457C165.189 157.023 170.152 200.985 192.431 229.44C195.601 224.956 196.513 220.515 193.696 215.57C199.888 216.187 205.606 212.94 209.012 207.826Z" fill="black"/>
<path d="M211.351 209.463C215.024 203.828 216.337 197.24 217.219 190.673C217.442 189.019 216.056 187.884 214.608 187.595C210.981 186.87 207.886 184.085 205.827 181.012C203.71 177.853 201.661 173.112 202.746 169.263C203.703 165.873 207.007 163.59 210.465 163.118C214.309 162.593 218.497 164.722 221.137 167.626C224.691 171.536 226.074 176.772 226.505 181.923C226.679 184.007 229.714 185.008 231.157 183.569C234.504 180.231 235.94 175.741 235.89 171.065C235.838 166.062 234.353 161.444 233.116 156.648C232.496 154.243 231.886 151.731 231.872 149.234C231.861 147.244 231.888 144.958 233.503 143.589C233.63 143.482 233.596 143.504 233.887 143.45C234.497 143.339 234.1 143.446 233.984 143.44C234.171 143.449 234.375 143.47 234.56 143.509C234.19 143.432 235.063 143.721 235.249 143.799C235.549 143.926 235.832 144.084 236.291 144.363C237.952 145.375 239.541 146.658 241.428 147.228C246.112 148.643 251.306 146.451 254.764 143.273C258.455 139.882 260.524 135.18 261.289 130.288C261.68 127.791 261.915 124.875 260.392 122.703C258.766 120.383 255.485 119.609 253.213 121.5C249.368 124.7 251.887 131.18 254.468 134.299C260.6 141.708 272.659 143.263 280.94 138.84C285.097 136.619 288.513 132.983 290.184 128.545C291.825 124.187 291.687 118.533 288.264 115.024C286.219 112.927 282.943 112.036 280.517 114.089C278.083 116.15 278.875 119.039 280.349 121.388C282.837 125.35 286.499 128.4 290.841 130.156C297.53 132.863 306.386 132.08 312.053 127.372C321.674 119.376 318.394 103.963 312.831 94.6172C303.445 78.8463 283.484 72.9401 266.433 70.2139C247.021 67.1102 226.214 69.0637 209.03 79.1784C193.49 88.3248 181.483 102.941 175.015 119.734C168.782 135.913 166.964 153.793 168.251 171C169.547 188.351 174.341 205.772 183.176 220.831C185.307 224.463 187.666 227.966 190.255 231.287C191.389 232.742 193.758 232.541 194.77 231.078C196.468 228.625 197.799 225.906 198.154 222.912C198.508 219.929 197.701 216.94 196.271 214.337C195.335 215.697 194.399 217.056 193.463 218.416C200.656 219.042 207.348 215.348 211.351 209.463C213.42 206.421 208.742 203.148 206.673 206.189C203.754 210.48 199.105 213.177 193.93 212.726C191.861 212.546 190.066 214.882 191.122 216.806C192.102 218.59 192.706 220.398 192.464 222.446C192.23 224.42 191.205 226.197 190.093 227.803C191.598 227.734 193.103 227.664 194.608 227.594C185.185 215.504 179.208 200.982 176.112 186.035C172.941 170.727 172.689 154.818 175.475 139.429C178.237 124.176 184.441 109.717 194.867 98.0363C205.842 85.74 220.695 77.9121 236.959 75.4723C245.84 74.14 254.887 74.3339 263.768 75.5752C272.518 76.7983 281.304 78.9403 289.414 82.4925C295.97 85.3637 302.363 89.453 306.562 95.3634C306.731 95.6024 306.896 95.8448 307.061 96.0871C307.427 96.6244 307.013 95.9799 307.351 96.5405C307.704 97.1275 308.055 97.7141 308.382 98.3161C309.024 99.4963 309.602 100.712 310.114 101.954C310.346 102.517 310.565 103.085 310.769 103.659C310.827 103.822 310.884 103.987 310.94 104.151C310.903 104.041 310.786 103.657 310.953 104.189C311.057 104.519 311.157 104.851 311.252 105.183C311.614 106.456 311.906 107.749 312.113 109.055C312.211 109.674 312.291 110.295 312.349 110.919C312.376 111.206 312.397 111.494 312.416 111.781C312.445 112.225 312.405 111.309 312.411 111.751C312.414 111.954 312.423 112.156 312.425 112.359C312.436 113.544 312.362 114.732 312.18 115.903C312.133 116.207 312.076 116.509 312.018 116.811C312.13 116.226 312.01 116.824 311.947 117.06C311.793 117.638 311.609 118.207 311.392 118.764C311.298 119.005 311.199 119.244 311.092 119.48C311.029 119.62 310.585 120.431 310.944 119.809C310.651 120.317 310.35 120.816 310.002 121.29C309.849 121.497 309.684 121.694 309.527 121.897C309.097 122.451 309.706 121.747 309.352 122.1C308.924 122.528 308.481 122.934 308.002 123.305C307.757 123.494 307.505 123.676 307.247 123.848C307.713 123.538 307.109 123.918 306.944 124.01C306.363 124.337 305.76 124.621 305.141 124.868C305.012 124.92 304.266 125.19 304.729 125.037C304.383 125.152 304.029 125.249 303.676 125.339C302.922 125.532 302.157 125.679 301.387 125.788C299.643 126.034 298.295 126.08 296.416 125.812C293.055 125.331 289.689 123.59 287.314 121.117C286.663 120.439 286.049 119.711 285.52 118.934C285.338 118.667 285.171 118.392 285.012 118.11C284.913 117.933 284.793 117.609 284.656 117.443L284.493 117.099C284.687 117.695 284.587 118.133 284.192 118.413C284.016 118.533 283.678 118.624 283.674 118.577C283.673 118.563 284.539 119.444 284.549 119.458C284.978 120.08 285.226 120.808 285.368 121.545C286.013 124.887 284.435 128.417 282.157 130.849C279.447 133.741 275.642 135.352 271.706 135.563C267.936 135.765 263.997 134.802 260.933 132.573C259.625 131.622 258.47 130.414 257.77 129.013C257.418 128.308 257.248 127.807 257.119 127.074C257.048 126.671 257.024 126.286 257.032 126.105C257.034 126.054 257.109 125.629 257.083 125.606C257.149 125.664 257.004 125.806 256.955 125.82C256.849 125.85 256.319 126.009 256.196 126.079C256.357 125.988 255.89 126.073 255.868 126.096C255.739 126.233 255.867 126.376 255.86 126.564C255.822 127.519 255.79 128.464 255.659 129.416C255.388 131.381 254.8 133.335 253.903 135.108C252.333 138.209 249.444 140.994 245.972 141.774C245.149 141.959 244.391 142.056 243.548 141.896C242.716 141.738 242.499 141.551 241.863 141.158C240.332 140.214 238.874 139.153 237.212 138.437C232.997 136.62 228.589 138.852 227.036 143.097C225.4 147.571 226.261 152.776 227.39 157.258C228.435 161.408 229.92 165.52 230.18 169.825C230.379 173.115 229.88 176.806 227.464 179.216L232.116 180.861C231.628 175.026 229.822 169.106 226.025 164.547C222.288 160.06 216.588 157.069 210.677 157.398C205.297 157.698 200.291 160.946 197.963 165.822C195.41 171.168 197.335 177.809 200.168 182.659C203.289 188.003 207.983 192.055 214.141 193.286C213.271 192.26 212.4 191.233 211.53 190.207C210.786 195.742 209.775 201.431 206.673 206.189C204.667 209.267 209.342 212.546 211.351 209.463Z" fill="black"/>
<path d="M189.895 134.895C192.797 131.208 193.854 126.137 192.667 121.597C191.481 117.057 188.077 113.152 183.741 111.357C177.252 108.67 169.816 110.724 163.339 113.44C161.017 114.414 158.307 116.23 158.804 118.699C158.992 119.637 159.994 120.525 160.85 120.098C161.435 119.807 161.631 119.072 161.673 118.42C162.75 101.846 129.269 111.203 122.723 116.187C106.795 128.314 106.636 154.417 119.637 168.767C120.838 170.093 122.644 171.411 124.263 170.649C125.377 170.124 125.881 168.722 125.659 167.511C125.437 166.299 124.631 165.271 123.711 164.45C113.245 155.121 90.2927 165.731 80.9826 172.469C70.6584 179.941 63.2309 191.819 62.6189 204.549C62.1627 214.041 67.3403 232.856 79.3922 233.405C82.9253 233.566 86.6756 229.97 85.2299 226.742C80.5719 229.911 77.9523 235.545 77.5887 241.167C77.2251 246.788 78.9057 252.386 81.4433 257.416C88.8156 272.029 103.905 282.459 120.18 284.193C129.268 285.161 139.903 282.632 144.022 274.474C145.259 272.025 145.734 268.913 144.219 266.626C142.705 264.338 138.714 263.864 137.357 266.248C136.465 267.815 137.014 269.814 137.888 271.39C140.485 276.071 145.647 278.944 150.934 279.781C156.221 280.618 161.64 279.648 166.774 278.135C179.102 274.503 191.245 266.76 195.492 254.63C198.389 246.356 197.232 237.27 195.81 228.62C193.368 213.768 190.244 199.032 186.565 184.438" fill="black"/>
<path d="M192.235 136.533C196.978 130.323 197.165 121.711 192.829 115.264C188.411 108.695 180.564 106.446 173.005 107.568C169.117 108.145 165.166 109.436 161.603 111.089C158.383 112.582 155.041 115.619 156.091 119.539C156.662 121.672 158.808 123.429 161.093 122.999C163.293 122.585 164.422 120.496 164.532 118.424C164.64 116.393 164.324 114.204 163.319 112.408C159.021 104.729 147.761 105.695 140.445 106.978C136.12 107.737 131.85 108.932 127.746 110.494C124.212 111.84 121.074 113.552 118.328 116.195C109.537 124.656 106.276 137.293 107.845 149.18C108.605 154.938 110.562 160.655 113.684 165.564C115.356 168.195 117.368 171.286 120.157 172.83C122.117 173.915 124.543 174.103 126.399 172.661C128.014 171.407 128.742 169.315 128.508 167.314C128.136 164.141 125.374 161.729 122.714 160.297C120.229 158.959 117.505 158.234 114.691 158.011C108.692 157.536 102.677 159.033 97.0631 161.013C85.6981 165.023 74.971 171.708 67.9208 181.652C63.7258 187.569 60.8786 194.472 59.9988 201.688C59.3771 206.787 59.9852 212.02 61.363 216.952C62.8071 222.121 65.0487 227.465 68.9 231.322C72.8688 235.297 79.3246 238.12 84.5349 234.717C87.6605 232.676 89.2135 229.071 87.8051 225.508C87.0734 223.657 84.7755 223.592 83.384 224.565C74.7632 230.596 73.1892 242.305 76.1073 251.759C78.9317 260.909 84.7066 268.911 91.9988 275.043C99.0938 281.01 107.764 285.012 116.888 286.608C125.179 288.059 134.632 287.205 141.487 281.902C144.922 279.244 147.857 274.987 148.008 270.527C148.097 267.897 147.269 265.226 145.182 263.518C143.516 262.155 141.179 261.538 139.055 261.935C136.551 262.402 134.673 264.295 134.193 266.784C133.651 269.601 134.935 272.278 136.522 274.525C139.171 278.274 143.496 280.877 147.889 282.028C153.217 283.425 158.783 283.05 164.103 281.795C168.753 280.699 173.34 279.091 177.618 276.956C185.793 272.877 193.06 266.745 197.033 258.385C201.828 248.295 200.076 236.721 198.291 226.131C196.366 214.715 194.041 203.367 191.375 192.101C190.727 189.365 190.058 186.634 189.372 183.907C188.996 182.413 187.615 181.335 186.035 181.633C184.587 181.906 183.383 183.468 183.761 184.97C186.264 194.914 188.516 204.921 190.468 214.989C191.441 220.01 192.347 225.046 193.16 230.097C193.92 234.823 194.582 239.598 194.413 244.396C194.258 248.794 193.401 253.167 191.341 257.092C189.639 260.334 187.241 263.188 184.502 265.6C178.704 270.708 171.412 274.066 163.962 275.958C156.229 277.922 146.405 278.259 141.098 271.138C140.611 270.484 140.156 269.736 139.909 268.954C139.814 268.654 139.796 268.325 139.756 268.026C139.716 267.722 139.458 269.244 139.858 267.599C139.84 267.674 139.614 267.908 139.829 267.666C140.017 267.453 139.865 267.629 139.777 267.673C140.251 267.436 139.984 267.575 139.844 267.606C140.028 267.565 140.21 267.521 140.398 267.504C140.255 267.517 139.928 267.492 140.497 267.53C140.898 267.557 141.35 267.679 141.797 268.098C141.572 267.887 141.907 268.311 141.937 268.364C142.113 268.669 142.191 268.947 142.255 269.285C142.401 270.061 142.297 270.889 142.079 271.651C141.623 273.244 140.711 274.714 139.628 275.9C135.143 280.813 127.403 281.989 120.934 281.399C113.313 280.703 105.919 277.892 99.5905 273.622C93.1637 269.286 87.7547 263.432 84.1943 256.526C80.5064 249.373 78.4137 240.195 83.1212 232.977C84.1839 231.347 85.4844 230.033 87.0777 228.919C85.6039 228.605 84.1303 228.291 82.6565 227.977C82.6508 227.962 82.6832 228.428 82.7237 228.262C82.6056 228.743 82.5515 228.843 82.2695 229.189C81.8916 229.653 81.1716 230.205 80.5657 230.401C79.6987 230.683 79.0809 230.554 78.1227 230.391C77.6168 230.306 78.7677 230.581 77.952 230.351C77.7808 230.303 77.6103 230.256 77.4407 230.202C76.9759 230.054 76.5316 229.868 76.085 229.673C75.9638 229.621 75.4622 229.343 75.9161 229.596C75.7618 229.51 75.6088 229.421 75.4581 229.328C75.0782 229.095 74.7103 228.843 74.3551 228.574C73.484 227.915 73.5366 227.954 72.7719 227.126C72.1591 226.463 71.5954 225.756 71.0743 225.018C70.7121 224.506 70.2354 223.731 69.7675 222.86C67.8891 219.364 66.8891 216.211 66.1446 212.381C65.8082 210.651 65.5759 208.902 65.4601 207.143C65.5007 207.76 65.446 206.695 65.4428 206.527C65.436 206.171 65.4349 205.815 65.4421 205.459C65.4657 204.288 65.565 203.116 65.7132 201.954C66.9866 191.97 72.7504 182.87 80.4164 176.517C81.2905 175.792 82.1905 175.099 83.1157 174.441C83.4144 174.228 83.7158 174.019 84.0194 173.814C84.1962 173.694 84.3739 173.576 84.5521 173.459C84.7168 173.35 84.6968 173.363 84.4922 173.497C84.6058 173.424 84.7197 173.351 84.8338 173.279C86.4692 172.259 88.1365 171.295 89.845 170.402C93.4889 168.496 97.5082 166.74 101.289 165.581C103.345 164.951 105.438 164.429 107.559 164.074C109.678 163.719 111.181 163.572 113.162 163.641C114.062 163.672 114.961 163.751 115.851 163.891C116.092 163.929 116.332 163.971 116.571 164.018C117.108 164.124 115.925 163.841 116.81 164.076C117.269 164.197 117.724 164.329 118.171 164.486C119.644 165.002 120.972 165.661 122.069 166.814C122.409 167.17 122.753 167.55 122.886 168.04C122.805 167.742 122.801 168.543 122.867 168.17C122.868 168.166 123.108 168.023 123.082 167.996C122.95 167.859 122.376 167.497 122.123 167.259C120.763 165.979 119.425 164.065 118.57 162.677C116.363 159.092 114.892 155.396 114.029 151.411C112.292 143.393 113.008 134.924 116.843 127.525C117.576 126.11 118.871 124.148 120.055 122.688C121.234 121.232 122.686 119.826 124.302 118.57C124.49 118.424 124.791 118.256 124.964 118.081C125.236 117.804 124.343 118.443 124.917 118.114C125.37 117.855 125.818 117.595 126.282 117.358C127.397 116.789 128.549 116.294 129.713 115.837C130.33 115.595 130.952 115.364 131.578 115.144C131.906 115.029 132.235 114.917 132.565 114.806C131.97 115.005 133.162 114.618 133.342 114.563C134.864 114.095 136.402 113.68 137.953 113.317C139.594 112.934 141.249 112.61 142.915 112.359C143.677 112.244 144.442 112.145 145.209 112.063C145.587 112.023 145.965 111.987 146.344 111.956C146.552 111.939 146.761 111.925 146.969 111.909C147.115 111.899 147.863 111.869 147.196 111.894C148.692 111.838 150.189 111.845 151.68 111.995C152.334 112.06 152.976 112.179 153.624 112.277C154.144 112.355 153.577 112.265 153.492 112.244C153.691 112.294 153.891 112.34 154.089 112.394C154.41 112.481 154.728 112.579 155.042 112.688C155.315 112.784 155.585 112.888 155.851 113.003C156.059 113.092 156.818 113.541 156.115 113.108C156.628 113.424 157.1 113.752 157.578 114.118C156.918 113.613 157.605 114.165 157.773 114.358C157.923 114.532 158.051 114.725 158.197 114.901C157.674 114.272 158.22 114.958 158.334 115.188C158.467 115.458 158.574 115.738 158.679 116.019C158.378 115.217 158.699 116.213 158.736 116.413C158.786 116.676 158.801 116.945 158.848 117.207C158.969 117.881 158.895 116.583 158.853 117.288C158.845 117.434 158.855 117.585 158.85 117.731C158.846 117.863 158.813 118.051 158.829 118.187C158.921 118.991 158.837 117.78 159.327 117.619L160.795 117.348C161.288 117.334 161.453 117.956 161.591 118.244C161.61 117.875 161.622 117.804 161.628 118.03C161.515 118.184 161.564 118.11 161.773 117.809C162.32 117.329 162.857 116.847 163.565 116.483C165.541 115.466 167.73 114.71 169.864 114.102C174.139 112.886 178.739 112.308 182.935 114.113C186.134 115.489 188.726 118.445 189.761 121.761C190.998 125.722 190.043 130.003 187.557 133.258C185.32 136.186 190.009 139.446 192.235 136.533Z" fill="black"/>
<path d="M269.391 200.932C272.234 202.081 275.078 203.229 277.921 204.378C278.844 204.751 280.061 204.202 280.363 203.244C280.682 202.233 280.218 201.202 279.23 200.803C276.386 199.654 273.543 198.505 270.699 197.357C269.776 196.984 268.56 197.533 268.257 198.49C267.938 199.501 268.402 200.533 269.391 200.932Z" fill="black"/>
<path d="M268.941 154.646C269.28 154.329 269.634 154.032 270.01 153.761C270.12 153.681 270.232 153.603 270.345 153.529C270.195 153.628 270.199 153.62 270.351 153.533C270.54 153.424 270.728 153.315 270.921 153.214C271.332 153.001 271.756 152.814 272.19 152.653C272.345 152.596 272.522 152.543 272.263 152.622C272.367 152.59 272.471 152.559 272.576 152.529C272.812 152.462 273.051 152.404 273.29 152.353C273.744 152.256 274.202 152.186 274.664 152.146C274.773 152.136 274.881 152.128 274.99 152.122C274.815 152.131 274.766 152.129 274.97 152.13C275.215 152.131 275.46 152.13 275.705 152.143C276.168 152.167 276.624 152.227 277.082 152.302C277.284 152.335 277.232 152.333 277.063 152.292C277.168 152.317 277.274 152.342 277.379 152.37C277.643 152.44 277.903 152.522 278.16 152.611C279.1 152.935 280.289 152.471 280.602 151.478C280.908 150.51 280.476 149.383 279.469 149.036C275.056 147.517 269.902 148.54 266.479 151.743C265.752 152.423 265.538 153.646 266.259 154.426C266.931 155.153 268.165 155.372 268.941 154.646Z" fill="black"/>
<path d="M301.046 157.662C301.808 157.465 302.577 157.304 303.356 157.189C303.689 157.14 304.023 157.098 304.359 157.065C304.582 157.043 304.806 157.027 305.03 157.009C305.453 156.974 304.729 157.013 305.194 157C306.714 156.959 308.223 157.056 309.722 157.319C310.706 157.492 311.739 156.541 311.775 155.578C311.816 154.468 311.087 153.711 310.034 153.526C306.833 152.964 303.483 153.104 300.338 153.922C299.377 154.171 298.575 155.099 298.822 156.146C299.045 157.095 300.015 157.93 301.046 157.662Z" fill="black"/>
<path d="M467.048 52.8908C476.236 66.9746 486.03 80.6628 495.802 94.3431C506.33 109.081 516.949 123.755 527.343 138.588C532.567 146.044 537.742 153.537 542.717 161.162C543.56 162.455 545.668 162.402 546.74 161.492C548.038 160.391 547.915 158.765 547.07 157.469C537.791 143.245 527.895 129.423 518.023 115.607C507.477 100.846 496.842 86.1483 486.436 71.2873C481.328 63.9912 476.268 56.6579 471.402 49.1976C470.559 47.9053 468.45 47.9583 467.378 48.8676C466.081 49.9685 466.203 51.5951 467.048 52.8908Z" fill="#F953B2"/>
<path d="M544.973 130.681C547.034 138.743 549.095 146.805 551.156 154.867C551.537 156.36 552.909 157.44 554.492 157.141C555.936 156.869 557.15 155.305 556.766 153.804C554.706 145.742 552.645 137.68 550.584 129.618C550.203 128.125 548.831 127.046 547.248 127.344C545.804 127.616 544.59 129.18 544.973 130.681Z" fill="#F953B2"/>
<path d="M37.2652 598.34C39.3268 595.737 41.3885 593.134 43.4501 590.531C44.3794 589.357 43.9959 587.35 42.7487 586.554C41.3799 585.681 39.7642 586.004 38.7725 587.256C36.7109 589.859 34.6492 592.462 32.5876 595.065C31.6583 596.238 32.0418 598.245 33.289 599.041C34.6578 599.914 36.2735 599.592 37.2652 598.34Z" fill="#6966ED"/>
<path d="M73.3868 599.858C72.0293 607.418 73.0461 615.281 76.0932 622.316C76.7057 623.73 78.5505 624.305 79.902 623.656C81.3384 622.967 81.8568 621.267 81.2419 619.847C78.5613 613.658 77.8866 606.953 79.0768 600.324C79.3496 598.805 77.8972 597.363 76.4651 597.246C74.804 597.11 73.6604 598.334 73.3868 599.858Z" fill="#6966ED"/>
<path d="M11.4453 571.203C14.2366 570.97 17.0279 570.737 19.8191 570.504C20.4896 570.448 21.2562 569.864 21.6267 569.336C22.0336 568.755 22.2585 567.869 22.0933 567.167C21.927 566.46 21.5549 565.761 20.9253 565.359C20.2408 564.923 19.5624 564.825 18.7565 564.893C15.9652 565.126 13.174 565.359 10.3827 565.592C9.7122 565.648 8.94563 566.231 8.57515 566.76C8.16822 567.341 7.94334 568.227 8.10856 568.929C8.27482 569.635 8.64697 570.335 9.27656 570.736C9.96098 571.173 10.6394 571.27 11.4453 571.203Z" fill="#6966ED"/>
</svg>
