<svg width="106" height="39" viewBox="0 0 106 39" fill="none" xmlns="http://www.w3.org/2000/svg">
<path d="M21.6132 0L0.435165 8.46154V12.5231L6.81758 10.0088C3.09451 12.7648 0 16.3429 0 19.9209C0 22.2418 1.69231 23.5956 4.88352 23.5956C7.63956 23.5956 11.1209 22.8703 14.022 22.8703C16.778 22.8703 18.2769 23.3055 18.2769 25.0945C18.2769 27.4154 14.989 30.945 8.46154 35.7802L10.9275 38.3912C17.7451 33.2176 22 29.2044 22 24.1275C22 20.7912 19.6791 18.8571 14.1187 18.8571C10.9758 18.8571 8.07473 19.5824 5.46374 19.5824C4.3033 19.5824 3.77143 19.1956 3.77143 18.4703C3.77143 17.5033 4.4967 15.7143 9.47692 11.7978C13.0066 8.99341 16.7297 6.47912 21.6132 4.01319V0Z" fill="#1C1917"/>
<path d="M14.7689 8.79964L15.2815 10.3216C15.8407 11.9819 17.5473 12.9672 19.2647 12.6213L20.8391 12.3042L19.3171 12.8168C17.6568 13.376 16.6715 15.0826 17.0174 16.8L17.3345 18.3743L16.8219 16.8524C16.2627 15.1921 14.5561 14.2068 12.8387 14.5527L11.2643 14.8698L12.7863 14.3572C14.4466 13.798 15.4319 12.0914 15.086 10.374L14.7689 8.79964Z" fill="#101010"/>
<path d="M14.7689 8.79964L15.2815 10.3216C15.8407 11.9819 17.5473 12.9672 19.2647 12.6213L20.8391 12.3042L19.3171 12.8168C17.6568 13.376 16.6715 15.0826 17.0174 16.8L17.3345 18.3743L16.8219 16.8524C16.2627 15.1921 14.5561 14.2068 12.8387 14.5527L11.2643 14.8698L12.7863 14.3572C14.4466 13.798 15.4319 12.0914 15.086 10.374L14.7689 8.79964Z" fill="#101010"/>
<path d="M14.7689 8.79964L15.2815 10.3216C15.8407 11.9819 17.5473 12.9672 19.2647 12.6213L20.8391 12.3042L19.3171 12.8168C17.6568 13.376 16.6715 15.0826 17.0174 16.8L17.3345 18.3743L16.8219 16.8524C16.2627 15.1921 14.5561 14.2068 12.8387 14.5527L11.2643 14.8698L12.7863 14.3572C14.4466 13.798 15.4319 12.0914 15.086 10.374L14.7689 8.79964Z" fill="#1C1917"/>
<path d="M39.44 27.4836C38.224 27.4836 37.136 27.2756 36.176 26.8596C35.232 26.4436 34.48 25.8356 33.92 25.0356C33.376 24.2356 33.096 23.2676 33.08 22.1316H36.512C36.528 22.6276 36.656 23.0756 36.896 23.4756C37.136 23.8756 37.464 24.1956 37.88 24.4356C38.312 24.6596 38.824 24.7716 39.416 24.7716C39.928 24.7716 40.368 24.6916 40.736 24.5316C41.12 24.3556 41.416 24.1156 41.624 23.8116C41.832 23.5076 41.936 23.1476 41.936 22.7316C41.936 22.2516 41.816 21.8516 41.576 21.5316C41.352 21.2116 41.032 20.9396 40.616 20.7156C40.216 20.4916 39.744 20.2916 39.2 20.1156C38.672 19.9236 38.112 19.7236 37.52 19.5156C36.192 19.0836 35.176 18.5076 34.472 17.7876C33.784 17.0676 33.44 16.1156 33.44 14.9316C33.44 13.9236 33.68 13.0596 34.16 12.3396C34.656 11.6196 35.336 11.0676 36.2 10.6836C37.064 10.2996 38.048 10.1076 39.152 10.1076C40.288 10.1076 41.28 10.3076 42.128 10.7076C42.992 11.0916 43.672 11.6516 44.168 12.3876C44.68 13.1236 44.944 13.9876 44.96 14.9796H41.504C41.488 14.6116 41.376 14.2676 41.168 13.9476C40.976 13.6116 40.704 13.3476 40.352 13.1556C40 12.9476 39.584 12.8436 39.104 12.8436C38.688 12.8276 38.304 12.8916 37.952 13.0356C37.616 13.1796 37.344 13.3956 37.136 13.6836C36.944 13.9556 36.848 14.2996 36.848 14.7156C36.848 15.1156 36.944 15.4516 37.136 15.7236C37.344 15.9956 37.624 16.2356 37.976 16.4436C38.328 16.6356 38.744 16.8196 39.224 16.9956C39.704 17.1556 40.224 17.3236 40.784 17.4996C41.616 17.7876 42.384 18.1316 43.088 18.5316C43.792 18.9156 44.352 19.4196 44.768 20.0436C45.184 20.6676 45.392 21.4916 45.392 22.5156C45.392 23.3956 45.16 24.2116 44.696 24.9636C44.232 25.7156 43.56 26.3236 42.68 26.7876C41.816 27.2516 40.736 27.4836 39.44 27.4836ZM52.4471 27.1956C51.5991 27.1956 50.8551 27.0676 50.2151 26.8116C49.5911 26.5396 49.1031 26.0996 48.7511 25.4916C48.3991 24.8676 48.2231 24.0196 48.2231 22.9476V17.8116H46.1591V15.0996H48.2231L48.5831 11.8116H51.4631V15.0996H54.6551V17.8116H51.4631V22.9956C51.4631 23.5396 51.5831 23.9156 51.8231 24.1236C52.0631 24.3316 52.4711 24.4356 53.0471 24.4356H54.6311V27.1956H52.4471ZM56.3847 27.1956V15.0996H59.6247V27.1956H56.3847ZM58.0167 13.4436C57.4407 13.4436 56.9607 13.2756 56.5767 12.9396C56.2087 12.5876 56.0247 12.1476 56.0247 11.6196C56.0247 11.0916 56.2087 10.6596 56.5767 10.3236C56.9607 9.97162 57.4407 9.79562 58.0167 9.79562C58.6087 9.79562 59.0887 9.97162 59.4567 10.3236C59.8407 10.6596 60.0327 11.0916 60.0327 11.6196C60.0327 12.1476 59.8407 12.5876 59.4567 12.9396C59.0887 13.2756 58.6087 13.4436 58.0167 13.4436ZM69.7493 27.1956L64.5893 20.5716L69.2213 15.0996H73.0373L67.0613 21.9396V19.3716L73.7813 27.1956H69.7493ZM61.8293 27.1956V9.91562H65.0693V27.1956H61.8293ZM82.5551 27.1956L77.3951 20.5716L82.0271 15.0996H85.8431L79.8671 21.9396V19.3716L86.5871 27.1956H82.5551ZM74.6351 27.1956V9.91562H77.8751V27.1956H74.6351ZM87.4408 27.1956V9.91562H90.6808V27.1956H87.4408ZM94.306 32.4756L97.234 25.8516H96.514L91.666 15.0996H95.194L98.65 22.8996L101.77 15.0996H105.202L97.738 32.4756H94.306Z" fill="#1C1917"/>
</svg>
