<svg width="645" height="188" viewBox="0 0 645 188" fill="none" xmlns="http://www.w3.org/2000/svg">
<g filter="url(#filter0_d_567_1772)">
<g clip-path="url(#clip0_567_1772)">
<rect width="644.501" height="76.4533" rx="12.2325" fill="white"/>
<rect x="9.17383" y="9.55664" width="57.34" height="57.34" rx="28.67" fill="#FDBA74"/>
<path fill-rule="evenodd" clip-rule="evenodd" d="M76.3481 35.8394C76.4369 35.7504 76.5424 35.6797 76.6585 35.6316C76.7746 35.5834 76.8991 35.5586 77.0248 35.5586C77.1505 35.5586 77.2749 35.5834 77.391 35.6316C77.5071 35.6797 77.6126 35.7504 77.7014 35.8394L80.8474 38.9873L83.9935 35.8394C84.1729 35.6599 84.4163 35.5591 84.6701 35.5591C84.9239 35.5591 85.1672 35.6599 85.3467 35.8394C85.5261 36.0188 85.627 36.2622 85.627 36.516C85.627 36.7697 85.5261 37.0131 85.3467 37.1926L81.524 41.0152C81.4353 41.1042 81.3298 41.1749 81.2137 41.223C81.0976 41.2712 80.9731 41.296 80.8474 41.296C80.7217 41.296 80.5973 41.2712 80.4811 41.223C80.365 41.1749 80.2596 41.1042 80.1708 41.0152L76.3481 37.1926C76.2591 37.1038 76.1885 36.9983 76.1404 36.8822C76.0922 36.7661 76.0674 36.6417 76.0674 36.516C76.0674 36.3903 76.0922 36.2658 76.1404 36.1497C76.1885 36.0336 76.2591 35.9281 76.3481 35.8394Z" fill="#4E4E4E"/>
<path d="M139.037 26.6599C138.944 26.4629 138.797 26.2963 138.614 26.1796C138.43 26.0629 138.217 26.001 137.999 26.001C137.781 26.001 137.568 26.0629 137.384 26.1796C137.201 26.2963 137.054 26.4629 136.961 26.6599L127.787 46.1555C127.723 46.2918 127.686 46.4394 127.679 46.5898C127.672 46.7403 127.695 46.8906 127.746 47.0323C127.849 47.3185 128.061 47.552 128.337 47.6815C128.612 47.8109 128.927 47.8257 129.213 47.7226C129.5 47.6195 129.733 47.407 129.862 47.1317L132.251 42.0571H143.747L146.136 47.1317C146.2 47.268 146.29 47.3903 146.401 47.4917C146.513 47.5931 146.643 47.6716 146.785 47.7226C146.926 47.7737 147.077 47.7963 147.227 47.7892C147.378 47.7822 147.525 47.7456 147.662 47.6815C147.798 47.6174 147.92 47.527 148.022 47.4157C148.123 47.3043 148.201 47.174 148.252 47.0323C148.303 46.8906 148.326 46.7403 148.319 46.5898C148.312 46.4394 148.275 46.2918 148.211 46.1555L139.037 26.6599ZM133.33 39.7635L137.999 29.8423L142.668 39.7635H133.33ZM155.201 32.8827C153.372 32.8827 151.943 33.3802 150.954 34.3621C150.746 34.578 150.632 34.8662 150.634 35.1654C150.637 35.4645 150.756 35.7508 150.967 35.9633C151.177 36.1757 151.463 36.2975 151.762 36.3026C152.061 36.3077 152.35 36.1957 152.568 35.9906C153.112 35.4501 154.001 35.1763 155.201 35.1763C157.098 35.1763 158.641 36.4665 158.641 38.0433V38.5049C157.624 37.824 156.425 37.4636 155.201 37.4699C152.039 37.4699 149.467 39.785 149.467 42.6305C149.467 45.476 152.039 47.7911 155.201 47.7911C156.426 47.7965 157.624 47.4345 158.641 46.7518C158.656 47.056 158.79 47.342 159.015 47.547C159.24 47.752 159.538 47.8591 159.842 47.8449C160.146 47.8306 160.432 47.6961 160.637 47.471C160.842 47.2458 160.949 46.9485 160.935 46.6443V38.0433C160.935 35.1978 158.363 32.8827 155.201 32.8827ZM155.201 45.4975C153.305 45.4975 151.761 44.2074 151.761 42.6305C151.761 41.0537 153.305 39.7635 155.201 39.7635C157.098 39.7635 158.641 41.0537 158.641 42.6305C158.641 44.2074 157.098 45.4975 155.201 45.4975Z" fill="#4E4E4E"/>
<path fill-rule="evenodd" clip-rule="evenodd" d="M183.384 35.8394C183.473 35.7504 183.579 35.6797 183.695 35.6316C183.811 35.5834 183.935 35.5586 184.061 35.5586C184.187 35.5586 184.311 35.5834 184.427 35.6316C184.543 35.6797 184.649 35.7504 184.738 35.8394L187.884 38.9873L191.03 35.8394C191.209 35.6599 191.452 35.5591 191.706 35.5591C191.96 35.5591 192.203 35.6599 192.383 35.8394C192.562 36.0188 192.663 36.2622 192.663 36.516C192.663 36.7697 192.562 37.0131 192.383 37.1926L188.56 41.0152C188.471 41.1042 188.366 41.1749 188.25 41.223C188.134 41.2712 188.009 41.296 187.884 41.296C187.758 41.296 187.633 41.2712 187.517 41.223C187.401 41.1749 187.296 41.1042 187.207 41.0152L183.384 37.1926C183.295 37.1038 183.225 36.9983 183.176 36.8822C183.128 36.7661 183.104 36.6417 183.104 36.516C183.104 36.3903 183.128 36.2658 183.176 36.1497C183.225 36.0336 183.295 35.9281 183.384 35.8394Z" fill="#4E4E4E"/>
<g clip-path="url(#clip1_567_1772)">
<path d="M224.994 30.7702H227.083L231.996 42.7703H232.166L237.079 30.7702H239.168V45.2268H237.53V34.2432H237.389L232.871 45.2268H231.29L226.773 34.2432H226.631V45.2268H224.994V30.7702ZM246.64 45.4527C245.595 45.4527 244.694 45.2221 243.936 44.7609C243.183 44.295 242.602 43.6456 242.193 42.8127C241.788 41.975 241.586 41.0009 241.586 39.8903C241.586 38.7797 241.788 37.8008 242.193 36.9538C242.602 36.102 243.171 35.4385 243.901 34.9632C244.635 34.4832 245.491 34.2432 246.47 34.2432C247.035 34.2432 247.593 34.3373 248.143 34.5255C248.694 34.7138 249.195 35.0196 249.647 35.4432C250.099 35.862 250.459 36.4173 250.727 37.1091C250.995 37.8008 251.129 38.6526 251.129 39.6644V40.3703H242.771V38.9303H249.435C249.435 38.3185 249.313 37.7726 249.068 37.2926C248.828 36.8126 248.484 36.4338 248.037 36.1561C247.595 35.8785 247.073 35.7396 246.47 35.7396C245.807 35.7396 245.233 35.9044 244.748 36.2338C244.268 36.5585 243.899 36.982 243.64 37.5044C243.381 38.0267 243.251 38.5867 243.251 39.1844V40.1444C243.251 40.9632 243.393 41.6574 243.675 42.2268C243.962 42.7915 244.36 43.2221 244.868 43.5186C245.376 43.8103 245.967 43.9562 246.64 43.9562C247.077 43.9562 247.473 43.895 247.826 43.7727C248.183 43.6456 248.492 43.4574 248.75 43.208C249.009 42.9538 249.209 42.6385 249.35 42.2621L250.96 42.7138C250.79 43.2597 250.506 43.7397 250.106 44.1539C249.706 44.5633 249.212 44.8833 248.623 45.1139C248.035 45.3397 247.374 45.4527 246.64 45.4527ZM257.399 45.4527C256.496 45.4527 255.698 45.2245 255.006 44.768C254.314 44.3068 253.773 43.6574 253.383 42.8197C252.992 41.9774 252.797 40.9821 252.797 39.8338C252.797 38.695 252.992 37.7067 253.383 36.8691C253.773 36.0314 254.317 35.3844 255.013 34.9279C255.71 34.4714 256.514 34.2432 257.427 34.2432C258.133 34.2432 258.691 34.3608 259.1 34.5961C259.514 34.8267 259.83 35.0902 260.046 35.3867C260.267 35.6785 260.439 35.9185 260.562 36.1067H260.703V30.7702H262.369V45.2268H260.759V43.5609H260.562C260.439 43.7586 260.265 44.008 260.039 44.3092C259.813 44.6056 259.491 44.8715 259.072 45.1068C258.653 45.3374 258.096 45.4527 257.399 45.4527ZM257.625 43.9562C258.293 43.9562 258.858 43.7821 259.319 43.4338C259.78 43.0809 260.131 42.5938 260.371 41.9727C260.611 41.3468 260.731 40.6244 260.731 39.8056C260.731 38.9962 260.613 38.2879 260.378 37.6808C260.143 37.0691 259.794 36.5938 259.333 36.2549C258.872 35.9114 258.303 35.7396 257.625 35.7396C256.919 35.7396 256.331 35.9208 255.86 36.2832C255.394 36.6408 255.044 37.1279 254.809 37.7444C254.578 38.3561 254.463 39.0432 254.463 39.8056C254.463 40.5773 254.58 41.2785 254.816 41.9091C255.056 42.535 255.409 43.0338 255.874 43.4056C256.345 43.7727 256.929 43.9562 257.625 43.9562ZM265.293 45.2268V34.3843H266.959V45.2268H265.293ZM266.14 32.5773C265.815 32.5773 265.535 32.4667 265.3 32.2455C265.069 32.0243 264.954 31.7584 264.954 31.4478C264.954 31.1372 265.069 30.8714 265.3 30.6502C265.535 30.429 265.815 30.3184 266.14 30.3184C266.464 30.3184 266.742 30.429 266.973 30.6502C267.208 30.8714 267.326 31.1372 267.326 31.4478C267.326 31.7584 267.208 32.0243 266.973 32.2455C266.742 32.4667 266.464 32.5773 266.14 32.5773ZM276.484 40.7938V34.3843H278.15V45.2268H276.484V43.3915H276.371C276.117 43.9421 275.722 44.4103 275.186 44.7962C274.649 45.1774 273.971 45.368 273.153 45.368C272.475 45.368 271.873 45.2197 271.345 44.9233C270.818 44.6221 270.404 44.1703 270.103 43.568C269.802 42.9609 269.651 42.1962 269.651 41.2738V34.3843H271.317V41.1609C271.317 41.9515 271.538 42.5821 271.981 43.0527C272.428 43.5233 272.997 43.7586 273.689 43.7586C274.103 43.7586 274.524 43.6527 274.953 43.4409C275.386 43.2291 275.748 42.9044 276.04 42.4668C276.336 42.0291 276.484 41.4715 276.484 40.7938ZM280.843 45.2268V34.3843H282.453V36.0785H282.594C282.82 35.4996 283.184 35.0502 283.688 34.7302C284.191 34.4055 284.796 34.2432 285.502 34.2432C286.217 34.2432 286.813 34.4055 287.288 34.7302C287.768 35.0502 288.142 35.4996 288.41 36.0785H288.523C288.801 35.5185 289.217 35.0738 289.773 34.7443C290.328 34.4102 290.994 34.2432 291.77 34.2432C292.74 34.2432 293.533 34.5467 294.149 35.1538C294.766 35.7561 295.074 36.695 295.074 37.9703V45.2268H293.408V37.9703C293.408 37.1703 293.189 36.5985 292.751 36.2549C292.314 35.9114 291.798 35.7396 291.206 35.7396C290.443 35.7396 289.853 35.9702 289.434 36.4314C289.015 36.8879 288.806 37.4667 288.806 38.1679V45.2268H287.111V37.8008C287.111 37.1844 286.911 36.6879 286.511 36.3114C286.111 35.9302 285.596 35.7396 284.965 35.7396C284.533 35.7396 284.128 35.8549 283.751 36.0855C283.38 36.3161 283.078 36.6361 282.848 37.0455C282.622 37.4503 282.509 37.9185 282.509 38.4503V45.2268H280.843Z" fill="#4E4E4E"/>
<path fill-rule="evenodd" clip-rule="evenodd" d="M318.547 35.4558C318.636 35.3668 318.742 35.2962 318.858 35.248C318.974 35.1998 319.098 35.175 319.224 35.175C319.35 35.175 319.474 35.1998 319.59 35.248C319.706 35.2962 319.812 35.3668 319.901 35.4558L323.047 38.6038L326.193 35.4558C326.372 35.2764 326.616 35.1756 326.869 35.1756C327.123 35.1756 327.366 35.2764 327.546 35.4558C327.725 35.6353 327.826 35.8786 327.826 36.1324C327.826 36.3862 327.725 36.6296 327.546 36.809L323.723 40.6317C323.634 40.7207 323.529 40.7913 323.413 40.8395C323.297 40.8877 323.172 40.9125 323.047 40.9125C322.921 40.9125 322.796 40.8877 322.68 40.8395C322.564 40.7913 322.459 40.7207 322.37 40.6317L318.547 36.809C318.458 36.7203 318.388 36.6148 318.34 36.4987C318.291 36.3826 318.267 36.2581 318.267 36.1324C318.267 36.0067 318.291 35.8823 318.34 35.7661C318.388 35.65 318.458 35.5446 318.547 35.4558Z" fill="#4E4E4E"/>
</g>
<path d="M392.592 37.0369C393.498 36.1649 394.122 35.0422 394.386 33.8127C394.649 32.5832 394.538 31.3032 394.069 30.1369C393.599 28.9706 392.792 27.9712 391.75 27.2671C390.708 26.563 389.48 26.1863 388.223 26.1853H378.475C378.171 26.1853 377.879 26.3061 377.664 26.5212C377.449 26.7363 377.328 27.028 377.328 27.3321V49.1213C377.328 49.4254 377.449 49.7171 377.664 49.9322C377.879 50.1473 378.171 50.2681 378.475 50.2681H389.943C391.533 50.2681 393.075 49.7171 394.305 48.709C395.535 47.7008 396.378 46.2976 396.69 44.7381C397.002 43.1787 396.764 41.5592 396.017 40.1551C395.27 38.7511 394.06 37.6492 392.592 37.0369ZM379.622 28.4789H388.223C389.287 28.4789 390.308 28.9018 391.061 29.6545C391.814 30.4072 392.237 31.4282 392.237 32.4927C392.237 33.5572 391.814 34.5781 391.061 35.3309C390.308 36.0836 389.287 36.5065 388.223 36.5065H379.622V28.4789ZM389.943 47.9745H379.622V38.8001H389.943C391.16 38.8001 392.326 39.2834 393.187 40.1437C394.047 41.0039 394.53 42.1707 394.53 43.3873C394.53 44.6039 394.047 45.7707 393.187 46.6309C392.326 47.4912 391.16 47.9745 389.943 47.9745Z" fill="#4E4E4E"/>
<path d="M460.472 28.2954C460.472 27.9912 460.592 27.6996 460.808 27.4845C461.023 27.2694 461.314 27.1486 461.618 27.1486H479.967C480.271 27.1486 480.563 27.2694 480.778 27.4845C480.993 27.6996 481.114 27.9912 481.114 28.2954C481.114 28.5995 480.993 28.8912 480.778 29.1063C480.563 29.3214 480.271 29.4422 479.967 29.4422H461.618C461.314 29.4422 461.023 29.3214 460.808 29.1063C460.592 28.8912 460.472 28.5995 460.472 28.2954ZM479.967 36.323H461.618C461.314 36.323 461.023 36.4438 460.808 36.6589C460.592 36.8739 460.472 37.1656 460.472 37.4698C460.472 37.7739 460.592 38.0656 460.808 38.2807C461.023 38.4958 461.314 38.6166 461.618 38.6166H479.967C480.271 38.6166 480.563 38.4958 480.778 38.2807C480.993 38.0656 481.114 37.7739 481.114 37.4698C481.114 37.1656 480.993 36.8739 480.778 36.6589C480.563 36.4438 480.271 36.323 479.967 36.323ZM479.967 45.4974H461.618C461.314 45.4974 461.023 45.6182 460.808 45.8333C460.592 46.0483 460.472 46.34 460.472 46.6442C460.472 46.9483 460.592 47.24 460.808 47.4551C461.023 47.6702 461.314 47.791 461.618 47.791H479.967C480.271 47.791 480.563 47.6702 480.778 47.4551C480.993 47.24 481.114 46.9483 481.114 46.6442C481.114 46.34 480.993 46.0483 480.778 45.8333C480.563 45.6182 480.271 45.4974 479.967 45.4974ZM455.311 26.5752C454.971 26.5752 454.638 26.6761 454.355 26.8651C454.072 27.0541 453.852 27.3228 453.722 27.6371C453.592 27.9514 453.557 28.2973 453.624 28.631C453.69 28.9647 453.854 29.2712 454.095 29.5118C454.335 29.7523 454.642 29.9162 454.975 29.9825C455.309 30.0489 455.655 30.0148 455.969 29.8847C456.284 29.7545 456.552 29.534 456.741 29.2511C456.93 28.9682 457.031 28.6356 457.031 28.2954C457.031 27.8392 456.85 27.4016 456.527 27.079C456.205 26.7564 455.767 26.5752 455.311 26.5752ZM455.311 35.7496C454.971 35.7496 454.638 35.8505 454.355 36.0395C454.072 36.2285 453.852 36.4972 453.722 36.8115C453.592 37.1258 453.557 37.4717 453.624 37.8054C453.69 38.1391 453.854 38.4456 454.095 38.6862C454.335 38.9267 454.642 39.0906 454.975 39.1569C455.309 39.2233 455.655 39.1892 455.969 39.059C456.284 38.9288 456.552 38.7084 456.741 38.4255C456.93 38.1426 457.031 37.81 457.031 37.4698C457.031 37.0136 456.85 36.576 456.527 36.2534C456.205 35.9308 455.767 35.7496 455.311 35.7496ZM455.311 44.924C454.971 44.924 454.638 45.0249 454.355 45.2139C454.072 45.4029 453.852 45.6716 453.722 45.9859C453.592 46.3002 453.557 46.6461 453.624 46.9798C453.69 47.3135 453.854 47.62 454.095 47.8605C454.335 48.1011 454.642 48.265 454.975 48.3313C455.309 48.3977 455.655 48.3636 455.969 48.2334C456.284 48.1032 456.552 47.8828 456.741 47.5999C456.93 47.317 457.031 46.9844 457.031 46.6442C457.031 46.188 456.85 45.7504 456.527 45.4278C456.205 45.1052 455.767 44.924 455.311 44.924Z" fill="#4E4E4E"/>
<path d="M563.684 31.7705C563.627 33.7668 562.806 35.6651 561.391 37.0744L556.409 42.0587C555.684 42.7882 554.821 43.3665 553.87 43.7602C552.92 44.1539 551.901 44.3551 550.872 44.3523H550.865C549.818 44.3516 548.783 44.1411 547.819 43.7334C546.855 43.3257 545.983 42.729 545.254 41.9785C544.525 41.228 543.953 40.339 543.573 39.364C543.193 38.389 543.013 37.3478 543.042 36.3018C543.051 35.9976 543.18 35.7093 543.401 35.5003C543.622 35.2913 543.917 35.1787 544.221 35.1872C544.525 35.1958 544.814 35.3248 545.023 35.5459C545.232 35.767 545.344 36.0621 545.336 36.3663C545.315 37.1058 545.442 37.8421 545.711 38.5316C545.979 39.221 546.383 39.8496 546.899 40.3803C547.414 40.9109 548.031 41.3329 548.713 41.6212C549.394 41.9095 550.126 42.0582 550.866 42.0587C551.593 42.0606 552.314 41.9182 552.986 41.6399C553.658 41.3617 554.268 40.9529 554.781 40.4374L559.762 35.456C560.79 34.4153 561.364 33.0102 561.36 31.5476C561.355 30.0849 560.772 28.6835 559.738 27.6492C558.704 26.615 557.302 26.0319 555.84 26.0273C554.377 26.0227 552.972 26.597 551.931 27.6248L550.354 29.2016C550.138 29.4076 549.849 29.5208 549.55 29.5169C549.251 29.5131 548.965 29.3926 548.754 29.1811C548.542 28.9697 548.422 28.684 548.418 28.3849C548.414 28.0859 548.527 27.7972 548.733 27.5804L550.31 26.0035C551.037 25.2758 551.901 24.6985 552.852 24.3046C553.802 23.9107 554.821 23.708 555.85 23.708C556.879 23.708 557.898 23.9107 558.849 24.3046C559.8 24.6985 560.663 25.2758 561.391 26.0035C562.144 26.7589 562.736 27.6597 563.131 28.6512C563.525 29.6426 563.713 30.7039 563.684 31.7705ZM544.906 45.7371L543.329 47.3139C542.814 47.8316 542.202 48.242 541.528 48.521C540.854 48.8001 540.131 48.9423 539.401 48.9395C538.306 48.9386 537.236 48.6133 536.326 48.0045C535.416 47.3958 534.707 46.531 534.289 45.5195C533.87 44.5079 533.761 43.395 533.974 42.3213C534.188 41.2476 534.715 40.2613 535.489 39.487L540.462 34.5056C541.245 33.7182 542.247 33.1845 543.337 32.9739C544.428 32.7632 545.556 32.8853 546.577 33.3243C547.597 33.7633 548.461 34.4988 549.058 35.4355C549.655 36.3722 549.956 37.4666 549.923 38.5767C549.914 38.8809 550.027 39.176 550.236 39.3971C550.445 39.6182 550.733 39.7472 551.037 39.7558C551.342 39.7643 551.637 39.6517 551.858 39.4427C552.079 39.2337 552.208 38.9454 552.216 38.6412C552.244 37.5763 552.055 36.5169 551.661 35.5273C551.266 34.5377 550.675 33.6385 549.923 32.8843C548.454 31.4159 546.462 30.591 544.385 30.591C542.307 30.591 540.315 31.4159 538.846 32.8843L533.868 37.8657C532.773 38.9601 532.027 40.3545 531.724 41.8727C531.422 43.3909 531.576 44.9647 532.167 46.3953C532.759 47.8259 533.761 49.049 535.048 49.9101C536.334 50.7711 537.847 51.2315 539.395 51.2331C540.424 51.2361 541.444 51.0349 542.395 50.6412C543.345 50.2475 544.209 49.6691 544.934 48.9395L546.511 47.3626C546.697 47.144 546.794 46.8638 546.783 46.5773C546.772 46.2907 546.654 46.0186 546.453 45.8146C546.251 45.6106 545.981 45.4894 545.694 45.4751C545.408 45.4607 545.126 45.5542 544.906 45.7371Z" fill="#4E4E4E"/>
<path d="M632.133 35.322L623.038 32.0163L619.733 22.9222C619.57 22.4833 619.277 22.1047 618.892 21.8374C618.508 21.57 618.051 21.4268 617.583 21.4268C617.114 21.4268 616.657 21.57 616.273 21.8374C615.889 22.1047 615.595 22.4833 615.432 22.9222L612.127 32.0163L603.033 35.322C602.594 35.4849 602.215 35.7783 601.948 36.1627C601.68 36.547 601.537 37.004 601.537 37.4722C601.537 37.9404 601.68 38.3974 601.948 38.7818C602.215 39.1662 602.594 39.4596 603.033 39.6225L612.127 42.9296L615.432 52.0222C615.595 52.4612 615.889 52.8398 616.273 53.1071C616.657 53.3744 617.114 53.5177 617.583 53.5177C618.051 53.5177 618.508 53.3744 618.892 53.1071C619.277 52.8398 619.57 52.4612 619.733 52.0222L623.04 42.9281L632.133 39.6225C632.572 39.4596 632.95 39.1662 633.217 38.7818C633.485 38.3974 633.628 37.9404 633.628 37.4722C633.628 37.004 633.485 36.547 633.217 36.1627C632.95 35.7783 632.572 35.4849 632.133 35.322ZM621.751 40.9556C621.594 41.0129 621.451 41.1039 621.333 41.2223C621.214 41.3407 621.123 41.4835 621.066 41.6408L617.583 51.2195L614.099 41.6408C614.042 41.4835 613.951 41.3407 613.833 41.2223C613.714 41.1039 613.571 41.0129 613.414 40.9556L603.835 37.4722L613.414 33.9888C613.571 33.9316 613.714 33.8405 613.833 33.7222C613.951 33.6038 614.042 33.4609 614.099 33.3036L617.583 23.725L621.066 33.3036C621.123 33.4609 621.214 33.6038 621.333 33.7222C621.451 33.8405 621.594 33.9316 621.751 33.9888L631.33 37.4722L621.751 40.9556Z" fill="#4E4E4E"/>
</g>
<rect x="0.955666" y="0.955666" width="642.59" height="74.542" rx="11.2769" stroke="#EBEBEB" stroke-width="1.91133"/>
</g>
<g filter="url(#filter1_d_567_1772)">
<g clip-path="url(#clip2_567_1772)">
<rect y="88.6858" width="489.301" height="76.4533" rx="18.3488" fill="white"/>
<rect x="15.291" y="98.2424" width="57.34" height="57.34" rx="28.67" fill="#FEF08A"/>
<rect x="95.5664" y="98.2424" width="57.34" height="57.34" rx="28.67" fill="#FCA5A5"/>
<rect x="175.843" y="98.2424" width="57.34" height="57.34" rx="28.67" fill="#86EFAC"/>
<rect x="256.118" y="98.2422" width="57.34" height="57.34" rx="28.67" fill="#FDBA74"/>
<rect x="336.395" y="98.2424" width="57.34" height="57.34" rx="28.67" fill="#93C5FD"/>
<rect x="416.67" y="98.2424" width="57.34" height="57.34" rx="28.67" fill="#C4B5FD"/>
</g>
<rect x="0.955666" y="89.6415" width="487.39" height="74.542" rx="17.3931" stroke="#EBEBEB" stroke-width="1.91133"/>
</g>
<defs>
<filter id="filter0_d_567_1772" x="0" y="0" width="644.501" height="99.1982" filterUnits="userSpaceOnUse" color-interpolation-filters="sRGB">
<feFlood flood-opacity="0" result="BackgroundImageFix"/>
<feColorMatrix in="SourceAlpha" type="matrix" values="0 0 0 0 0 0 0 0 0 0 0 0 0 0 0 0 0 0 127 0" result="hardAlpha"/>
<feMorphology radius="21.0247" operator="erode" in="SourceAlpha" result="effect1_dropShadow_567_1772"/>
<feOffset dy="30.5813"/>
<feGaussianBlur stdDeviation="6.5941"/>
<feComposite in2="hardAlpha" operator="out"/>
<feColorMatrix type="matrix" values="0 0 0 0 0 0 0 0 0 0 0 0 0 0 0 0 0 0 0.15 0"/>
<feBlend mode="normal" in2="BackgroundImageFix" result="effect1_dropShadow_567_1772"/>
<feBlend mode="normal" in="SourceGraphic" in2="effect1_dropShadow_567_1772" result="shape"/>
</filter>
<filter id="filter1_d_567_1772" x="0" y="88.6858" width="489.301" height="99.1982" filterUnits="userSpaceOnUse" color-interpolation-filters="sRGB">
<feFlood flood-opacity="0" result="BackgroundImageFix"/>
<feColorMatrix in="SourceAlpha" type="matrix" values="0 0 0 0 0 0 0 0 0 0 0 0 0 0 0 0 0 0 127 0" result="hardAlpha"/>
<feMorphology radius="21.0247" operator="erode" in="SourceAlpha" result="effect1_dropShadow_567_1772"/>
<feOffset dy="30.5813"/>
<feGaussianBlur stdDeviation="6.5941"/>
<feComposite in2="hardAlpha" operator="out"/>
<feColorMatrix type="matrix" values="0 0 0 0 0 0 0 0 0 0 0 0 0 0 0 0 0 0 0.15 0"/>
<feBlend mode="normal" in2="BackgroundImageFix" result="effect1_dropShadow_567_1772"/>
<feBlend mode="normal" in="SourceGraphic" in2="effect1_dropShadow_567_1772" result="shape"/>
</filter>
<clipPath id="clip0_567_1772">
<rect width="644.501" height="76.4533" rx="12.2325" fill="white"/>
</clipPath>
<clipPath id="clip1_567_1772">
<rect width="112.227" height="39.7557" fill="white" transform="translate(223.243 18.3489)"/>
</clipPath>
<clipPath id="clip2_567_1772">
<rect y="88.6858" width="489.301" height="76.4533" rx="18.3488" fill="white"/>
</clipPath>
</defs>
</svg>
