<svg width="1015" height="146" viewBox="0 0 1015 146" fill="none" xmlns="http://www.w3.org/2000/svg">
<rect x="18.5283" y="66.2475" width="67.2527" height="67.2527" rx="14.3472" transform="rotate(-3.17803 18.5283 66.2475)" fill="#6366F1"/>
<path d="M60.5393 98.9099C60.4553 98.8344 60.3908 98.7397 60.3512 98.634C60.3117 98.5282 60.2984 98.4144 60.3123 98.3023C60.3262 98.1903 60.367 98.0832 60.4313 97.9904C60.4955 97.8975 60.5812 97.8215 60.6812 97.7689L68.6066 94.2083L68.634 94.1963C69.0101 94.0029 69.3191 93.7006 69.5207 93.3287C69.7222 92.9569 69.8069 92.533 69.7636 92.1123C69.7204 91.6915 69.5512 91.2937 69.2782 90.9707C69.0052 90.6476 68.6411 90.4145 68.2335 90.3017L39.7314 82.7157C39.3583 82.6196 38.966 82.6279 38.5974 82.7397C38.2287 82.8514 37.8978 83.0624 37.6409 83.3495C37.384 83.6366 37.211 83.9888 37.1407 84.3676C37.0705 84.7463 37.1057 85.1372 37.2425 85.4973L47.9372 112.984C48.089 113.382 48.3592 113.723 48.7112 113.962C49.0633 114.201 49.4803 114.326 49.9058 114.32L50.0072 114.315C50.4162 114.295 50.8104 114.156 51.1403 113.913C51.4701 113.67 51.7208 113.335 51.8609 112.951L51.8699 112.922L54.5311 104.651C54.5722 104.546 54.6383 104.452 54.7236 104.378C54.809 104.303 54.9111 104.251 55.0211 104.224C55.1312 104.198 55.2461 104.199 55.3558 104.227C55.4655 104.254 55.5669 104.308 55.6512 104.384L65.1219 112.86C65.3277 113.045 65.568 113.187 65.829 113.279C66.0899 113.371 66.3664 113.41 66.6426 113.395C66.9188 113.379 67.1892 113.31 67.4384 113.189C67.6876 113.069 67.9106 112.901 68.0947 112.695L70.1906 110.353C70.3754 110.147 70.5177 109.906 70.6095 109.646C70.7012 109.385 70.7405 109.108 70.7252 108.832C70.7099 108.556 70.6402 108.285 70.5201 108.036C70.4 107.787 70.2319 107.564 70.0255 107.38L60.5393 98.9099ZM69.1319 109.419L67.036 111.761C66.9746 111.829 66.9004 111.885 66.8174 111.925C66.7344 111.965 66.6444 111.988 66.5525 111.993C66.4606 111.999 66.3686 111.985 66.2817 111.955C66.1948 111.925 66.1148 111.877 66.0462 111.816L56.5756 103.341C56.1606 102.97 55.6149 102.778 55.0585 102.808C54.9271 102.816 54.7966 102.835 54.6688 102.867C54.3364 102.949 54.029 103.111 53.7736 103.34C53.5181 103.568 53.3223 103.855 53.2032 104.176L53.1943 104.205L50.533 112.475C50.4793 112.602 50.3893 112.711 50.2744 112.787C50.1594 112.863 50.0246 112.903 49.8868 112.903C49.749 112.903 49.6143 112.862 49.4996 112.785C49.3849 112.709 49.2952 112.601 49.2419 112.473L38.5474 84.9898C38.5032 84.8704 38.4924 84.7411 38.5162 84.616C38.54 84.4909 38.5975 84.3746 38.6824 84.2797C38.7673 84.1848 38.8765 84.1149 38.9982 84.0774C39.1199 84.0399 39.2496 84.0363 39.3732 84.0669L67.8719 91.6549C68.0041 91.6938 68.1219 91.7709 68.2105 91.8764C68.2991 91.982 68.3547 92.1113 68.3701 92.2482C68.3856 92.3852 68.3603 92.5237 68.2975 92.6463C68.2346 92.769 68.137 92.8704 68.0168 92.9378L60.0913 96.4966L60.064 96.5104C59.7578 96.664 59.4938 96.8901 59.295 97.1691C59.0962 97.4481 58.9686 97.7714 58.9233 98.111C58.878 98.4505 58.9163 98.796 59.0351 99.1173C59.1538 99.4386 59.3493 99.7261 59.6045 99.9546L69.0769 108.429C69.1455 108.49 69.2014 108.564 69.2413 108.647C69.2812 108.73 69.3044 108.82 69.3095 108.912C69.3146 109.004 69.3016 109.096 69.2711 109.183C69.2406 109.27 69.1933 109.35 69.1319 109.419Z" fill="white"/>
<path fill-rule="evenodd" clip-rule="evenodd" d="M98.9574 93.5424C99.0556 93.4324 99.1745 93.3429 99.3073 93.2789C99.4402 93.215 99.5843 93.1778 99.7315 93.1696C99.8787 93.1615 100.026 93.1824 100.165 93.2313C100.304 93.2802 100.432 93.356 100.542 93.4544L104.431 96.9364L107.911 93.0453C108.109 92.8235 108.388 92.6896 108.685 92.6731C108.982 92.6566 109.274 92.7588 109.495 92.9573C109.717 93.1558 109.851 93.4343 109.868 93.7315C109.884 94.0287 109.782 94.3202 109.583 94.542L105.355 99.2672C105.257 99.3772 105.138 99.4668 105.005 99.5307C104.873 99.5947 104.728 99.6318 104.581 99.64C104.434 99.6482 104.287 99.6272 104.148 99.5784C104.008 99.5295 103.88 99.4537 103.771 99.3552L99.0454 95.1272C98.9354 95.029 98.8458 94.9101 98.7819 94.7772C98.7179 94.6444 98.6808 94.5003 98.6726 94.353C98.6644 94.2058 98.6854 94.0585 98.7342 93.9194C98.7831 93.7803 98.859 93.6522 98.9574 93.5424Z" fill="#1E1E1E"/>
<line x1="145.055" y1="60.3455" x2="148.659" y2="125.257" stroke="#EEEEEE" stroke-width="2.24176"/>
<g filter="url(#filter0_d_333_3860)">
<g filter="url(#filter1_i_333_3860)">
<rect x="208.759" y="52.9917" width="78.4615" height="78.4615" rx="4.48352" transform="rotate(26.822 208.759 52.9917)" fill="#E1A8FF"/>
</g>
<g filter="url(#filter2_i_333_3860)">
<rect x="189.236" y="65.3022" width="78.4615" height="78.4615" rx="4.48352" transform="rotate(11.822 189.236 65.3022)" fill="#FFB3CC"/>
</g>
<g filter="url(#filter3_i_333_3860)">
<rect x="170.086" y="84.3276" width="78.4615" height="78.4615" rx="4.48352" transform="rotate(-3.17803 170.086 84.3276)" fill="#FFEF93"/>
</g>
</g>
<g filter="url(#filter4_d_333_3860)">
<path fill-rule="evenodd" clip-rule="evenodd" d="M322.959 49.7999C323.477 49.0149 324.606 48.9522 325.207 49.675L331.591 57.3466C331.626 57.3887 331.657 57.4323 331.686 57.4763C332.046 57.9462 332.347 58.4685 332.578 59.0357L339.82 76.8921C340.098 77.5789 340.261 78.3075 340.302 79.0474L340.399 80.7928C340.604 84.4783 337.8 87.6406 334.116 87.8776L318.456 88.885C314.726 89.1249 311.516 86.2775 311.309 82.5459L311.205 80.663C311.164 79.9231 311.245 79.181 311.446 78.4676L316.667 59.9192C316.838 59.3113 317.089 58.742 317.409 58.2221C317.426 58.1914 317.444 58.1611 317.464 58.131L322.959 49.7999Z" fill="#373737"/>
<path d="M344.54 74.3357C344.68 74.3279 344.799 74.435 344.807 74.5751L347.625 125.325C347.633 125.465 347.526 125.585 347.386 125.593L309.323 127.706C309.183 127.714 309.063 127.607 309.056 127.467L306.238 76.7167C306.23 76.5765 306.337 76.4569 306.477 76.4491L344.54 74.3357Z" fill="url(#paint0_linear_333_3860)" stroke="url(#paint1_linear_333_3860)" stroke-width="0.508281" stroke-linejoin="round"/>
<path d="M332.145 57.3955C332.231 57.3907 332.314 57.4298 332.365 57.4997L344.77 74.6283C344.825 74.7036 344.833 74.8023 344.793 74.8862C344.753 74.9702 344.671 75.026 344.578 75.0312L306.516 77.1446C306.423 77.1497 306.335 77.1033 306.286 77.0243C306.237 76.9453 306.235 76.8462 306.281 76.7654L316.713 58.3687L316.752 58.3177C316.796 58.2722 316.856 58.2444 316.92 58.2408L332.145 57.3955Z" fill="#D9D9D9"/>
<path d="M332.145 57.3955C332.231 57.3907 332.314 57.4298 332.365 57.4997L344.77 74.6283C344.825 74.7036 344.833 74.8023 344.793 74.8862C344.753 74.9702 344.671 75.026 344.578 75.0312L306.516 77.1446C306.423 77.1497 306.335 77.1033 306.286 77.0243C306.237 76.9453 306.235 76.8462 306.281 76.7654L316.713 58.3687L316.752 58.3177C316.796 58.2722 316.856 58.2444 316.92 58.2408L332.145 57.3955Z" fill="url(#paint2_linear_333_3860)"/>
<path d="M332.145 57.3955C332.231 57.3907 332.314 57.4298 332.365 57.4997L344.77 74.6283C344.825 74.7036 344.833 74.8023 344.793 74.8862C344.753 74.9702 344.671 75.026 344.578 75.0312L306.516 77.1446C306.423 77.1497 306.335 77.1033 306.286 77.0243C306.237 76.9453 306.235 76.8462 306.281 76.7654L316.713 58.3687L316.752 58.3177C316.796 58.2722 316.856 58.2444 316.92 58.2408L332.145 57.3955Z" fill="url(#paint3_linear_333_3860)"/>
<path d="M332.145 57.3955C332.231 57.3907 332.314 57.4298 332.365 57.4997L344.77 74.6283C344.825 74.7036 344.833 74.8023 344.793 74.8862C344.753 74.9702 344.671 75.026 344.578 75.0312L306.516 77.1446C306.423 77.1497 306.335 77.1033 306.286 77.0243C306.237 76.9453 306.235 76.8462 306.281 76.7654L316.713 58.3687L316.752 58.3177C316.796 58.2722 316.856 58.2444 316.92 58.2408L332.145 57.3955Z" stroke="url(#paint4_linear_333_3860)" stroke-width="0.508281" stroke-linejoin="round"/>
</g>
<line x1="375.601" y1="47.5448" x2="379.205" y2="112.456" stroke="#EEEEEE" stroke-width="2.24176"/>
<path fill-rule="evenodd" clip-rule="evenodd" d="M417.88 60.9135C417.863 60.6167 417.965 60.3255 418.163 60.104C418.362 59.8825 418.64 59.7487 418.937 59.7323L450.273 57.9923C450.57 57.9759 450.861 58.078 451.082 58.2762C451.304 58.4744 451.438 58.7525 451.454 59.0493L451.827 65.7643C451.843 66.0611 451.741 66.3523 451.543 66.5738C451.345 66.7954 451.067 66.9291 450.77 66.9456C450.473 66.9621 450.182 66.8599 449.96 66.6617C449.739 66.4635 449.605 66.1854 449.589 65.8886L449.278 60.2928L435.848 61.0385L437.464 90.1365L443.06 89.8258C443.356 89.8093 443.648 89.9114 443.869 90.1096C444.091 90.3079 444.224 90.586 444.241 90.8828C444.257 91.1796 444.155 91.4708 443.957 91.6924C443.759 91.9139 443.481 92.0476 443.184 92.0641L429.754 92.8098C429.457 92.8263 429.166 92.7242 428.944 92.5259C428.723 92.3277 428.589 92.0496 428.573 91.7528C428.556 91.456 428.658 91.1647 428.857 90.9432C429.055 90.7217 429.333 90.588 429.63 90.5715L435.225 90.2608L433.61 61.1627L420.18 61.9084L420.491 67.5042C420.507 67.801 420.405 68.0922 420.207 68.3138C420.009 68.5353 419.73 68.669 419.434 68.6855C419.137 68.702 418.846 68.5999 418.624 68.4016C418.403 68.2034 418.269 67.9253 418.252 67.6285L417.88 60.9135Z" fill="#1E1E1E"/>
<path d="M532.515 76.5288C534.5 76.416 536.359 75.5245 537.685 74.0497C539.011 72.575 539.696 70.6374 539.589 68.6618L539.013 58.2949C538.903 56.3187 538.009 54.4673 536.528 53.1479C535.046 51.8285 533.098 51.1492 531.112 51.2594C529.127 51.3697 527.266 52.2604 525.939 53.7358C524.613 55.2111 523.929 57.1502 524.039 59.1263L524.615 69.4933C524.727 71.4685 525.622 73.3184 527.103 74.6373C528.584 75.9562 530.53 76.6364 532.515 76.5288ZM525.992 59.0179C525.911 57.5572 526.416 56.124 527.397 55.0336C528.377 53.9431 529.753 53.2847 531.22 53.2032C532.688 53.1217 534.128 53.6238 535.223 54.599C536.318 55.5742 536.979 56.9427 537.06 58.4034L537.636 68.7703C537.717 70.2309 537.211 71.6641 536.231 72.7546C535.251 73.8451 533.875 74.5035 532.408 74.585C530.94 74.6665 529.5 74.1644 528.405 73.1891C527.31 72.2139 526.649 70.8455 526.568 69.3848L525.992 59.0179ZM533.778 81.6175L534.086 87.1654C534.1 87.4232 534.011 87.6761 533.838 87.8685C533.665 88.061 533.422 88.1772 533.163 88.1915C532.904 88.2059 532.65 88.1173 532.457 87.9452C532.263 87.7731 532.147 87.5316 532.132 87.2739L531.824 81.7259C528.624 81.6548 525.569 80.3861 523.267 78.1726C520.966 75.9591 519.587 72.9634 519.406 69.7824C519.392 69.5247 519.481 69.2718 519.654 69.0793C519.827 68.8869 520.07 68.7707 520.329 68.7563C520.588 68.7419 520.842 68.8305 521.035 69.0026C521.229 69.1747 521.345 69.4162 521.359 69.674C521.517 72.5094 522.8 75.1658 524.926 77.0589C527.051 78.952 529.846 79.9266 532.695 79.7684C535.544 79.6102 538.214 78.3322 540.117 76.2154C542.021 74.0986 543.001 71.3165 542.844 68.4811C542.83 68.2233 542.919 67.9704 543.092 67.778C543.265 67.5855 543.508 67.4693 543.767 67.455C544.026 67.4406 544.28 67.5292 544.473 67.7013C544.666 67.8734 544.783 68.1149 544.797 68.3726C544.97 71.554 543.931 74.6839 541.889 77.1386C539.847 79.5933 536.951 81.1925 533.778 81.6175Z" fill="#1E1E1E"/>
<line x1="590.479" y1="35.6131" x2="594.083" y2="100.524" stroke="#EEEEEE" stroke-width="2.24176"/>
<path d="M666.477 57.452C667.184 57.4127 667.847 57.0941 668.319 56.5662C668.792 56.0383 669.035 55.3443 668.996 54.637L668.657 48.5412C668.618 47.8339 668.299 47.1711 667.771 46.6988C667.244 46.2264 666.55 45.9831 665.842 46.0224L659.747 46.3608C659.039 46.4001 658.376 46.7187 657.904 47.2466C657.432 47.7746 657.188 48.4685 657.228 49.1758L657.333 51.0808L644.38 51.8L644.274 49.8951C644.235 49.1877 643.916 48.525 643.388 48.0526C642.86 47.5803 642.166 47.3369 641.459 47.3762L635.363 47.7147C634.656 47.7539 633.993 48.0726 633.521 48.6005C633.048 49.1284 632.805 49.8224 632.844 50.5297L633.183 56.6255C633.222 57.3328 633.541 57.9956 634.069 58.4679C634.597 58.9403 635.291 59.1836 635.998 59.1443L637.903 59.0386L638.622 71.9922L636.717 72.098C636.01 72.1372 635.347 72.4559 634.875 72.9838C634.402 73.5117 634.159 74.2057 634.198 74.913L634.537 81.0088C634.576 81.7161 634.895 82.3788 635.423 82.8512C635.95 83.3236 636.644 83.5669 637.352 83.5276L643.448 83.1892C644.155 83.1499 644.818 82.8313 645.29 82.3033C645.762 81.7754 646.006 81.0815 645.966 80.3742L645.861 78.4692L658.814 77.75L658.92 79.6549C658.959 80.3622 659.278 81.025 659.806 81.4974C660.334 81.9697 661.028 82.2131 661.735 82.1738L667.831 81.8353C668.538 81.796 669.201 81.4774 669.673 80.9495C670.146 80.4216 670.389 79.7276 670.35 79.0203L670.011 72.9245C669.972 72.2172 669.653 71.5544 669.125 71.0821C668.597 70.6097 667.903 70.3664 667.196 70.4056L665.291 70.5114L664.572 57.5578L666.477 57.452ZM659.514 49.0489C659.508 48.9478 659.543 48.8487 659.61 48.7733C659.678 48.6979 659.772 48.6524 659.873 48.6468L665.969 48.3083C666.07 48.3027 666.169 48.3374 666.245 48.4049C666.32 48.4724 666.366 48.5671 666.371 48.6681L666.71 54.7639C666.715 54.865 666.681 54.9641 666.613 55.0395C666.546 55.115 666.451 55.1605 666.35 55.1661L660.254 55.5046C660.153 55.5102 660.054 55.4754 659.979 55.4079C659.903 55.3404 659.858 55.2458 659.852 55.1447L659.514 49.0489ZM635.469 56.4986L635.13 50.4028C635.125 50.3017 635.159 50.2026 635.227 50.1272C635.294 50.0517 635.389 50.0062 635.49 50.0006L641.586 49.6621C641.687 49.6565 641.786 49.6913 641.862 49.7588C641.937 49.8263 641.982 49.9209 641.988 50.022L642.327 56.1178C642.332 56.2188 642.297 56.318 642.23 56.3934C642.162 56.4688 642.068 56.5143 641.967 56.5199L635.871 56.8584C635.77 56.864 635.671 56.8293 635.595 56.7618C635.52 56.6943 635.474 56.5996 635.469 56.4986ZM643.68 80.5011C643.686 80.6021 643.651 80.7013 643.584 80.7767C643.516 80.8521 643.422 80.8976 643.321 80.9032L637.225 81.2417C637.124 81.2473 637.025 81.2126 636.949 81.1451C636.874 81.0776 636.828 80.9829 636.823 80.8819L636.484 74.786C636.479 74.685 636.513 74.5859 636.581 74.5104C636.648 74.435 636.743 74.3895 636.844 74.3839L642.94 74.0454C643.041 74.0398 643.14 74.0746 643.215 74.1421C643.291 74.2096 643.336 74.3042 643.342 74.4053L643.68 80.5011ZM667.725 73.0514L668.064 79.1472C668.069 79.2483 668.035 79.3474 667.967 79.4228C667.9 79.4982 667.805 79.5438 667.704 79.5494L661.608 79.8878C661.507 79.8935 661.408 79.8587 661.332 79.7912C661.257 79.7237 661.212 79.6291 661.206 79.528L660.867 73.4322C660.862 73.3311 660.897 73.232 660.964 73.1566C661.032 73.0812 661.126 73.0357 661.227 73.03L667.323 72.6916C667.424 72.686 667.523 72.7207 667.599 72.7882C667.674 72.8557 667.72 72.9504 667.725 73.0514ZM663.005 70.6383L661.1 70.7441C660.393 70.7834 659.73 71.102 659.258 71.6299C658.786 72.1579 658.542 72.8518 658.582 73.5591L658.687 75.4641L645.734 76.1833L645.628 74.2783C645.589 73.571 645.27 72.9083 644.742 72.4359C644.214 71.9635 643.52 71.7202 642.813 71.7595L640.908 71.8653L640.189 58.9116L642.094 58.8059C642.801 58.7666 643.464 58.448 643.936 57.92C644.408 57.3921 644.652 56.6982 644.613 55.9909L644.507 54.0859L657.46 53.3667L657.566 55.2716C657.605 55.979 657.924 56.6417 658.452 57.1141C658.98 57.5864 659.674 57.8298 660.381 57.7905L662.286 57.6847L663.005 70.6383Z" fill="#1E1E1E"/>
<path d="M770.764 48.6914L763.722 42.3901C763.473 42.1823 763.152 42.0795 762.828 42.1032C762.505 42.1269 762.203 42.2753 761.986 42.5173C761.77 42.7592 761.656 43.0757 761.668 43.4001C761.68 43.7245 761.818 44.0314 762.052 44.2563L766.839 48.5413L763.188 48.744C753.18 49.2996 751.113 55.1572 749.288 60.3259C747.584 65.1553 746.096 69.3558 738.749 70.1464C738.316 68.1984 737.164 66.4854 735.523 65.3486C733.883 64.2119 731.875 63.735 729.899 64.013C727.922 64.291 726.123 65.3034 724.86 66.8485C723.597 68.3937 722.963 70.358 723.083 72.35C723.204 74.342 724.071 76.2155 725.511 77.5969C726.951 78.9784 728.859 79.7664 730.855 79.804C732.85 79.8415 734.786 79.1258 736.277 77.7995C737.768 76.4732 738.705 74.6337 738.901 72.6476C747.913 71.7164 749.892 66.1209 751.647 61.159C753.44 56.0883 754.987 51.7089 763.327 51.2459L766.978 51.0432L762.695 55.8317C762.578 55.9531 762.487 56.0967 762.428 56.2539C762.368 56.4111 762.34 56.5788 762.346 56.747C762.353 56.9151 762.393 57.0802 762.465 57.2325C762.536 57.3848 762.638 57.5211 762.763 57.6333C762.888 57.7454 763.035 57.8312 763.194 57.8855C763.354 57.9398 763.522 57.9614 763.69 57.9491C763.858 57.9368 764.021 57.8909 764.171 57.814C764.321 57.7371 764.453 57.6308 764.561 57.5016L770.862 50.4594C771.084 50.2119 771.197 49.8866 771.179 49.5551C771.161 49.2236 771.011 48.913 770.764 48.6914ZM731.311 77.2831C730.239 77.3426 729.173 77.0829 728.249 76.5367C727.324 75.9906 726.583 75.1825 726.117 74.2148C725.652 73.2471 725.484 72.1631 725.635 71.0999C725.786 70.0368 726.248 69.0422 726.964 68.242C727.68 67.4418 728.618 66.8719 729.658 66.6044C730.697 66.3368 731.793 66.3837 732.807 66.739C733.82 67.0943 734.705 67.742 735.35 68.6004C735.995 69.4588 736.371 70.4892 736.431 71.5613C736.511 72.999 736.016 74.4095 735.056 75.4825C734.096 76.5556 732.749 77.2032 731.311 77.2831Z" fill="#1E1E1E"/>
<path d="M846.629 47.7044C846.645 48.0043 846.542 48.2986 846.342 48.5225C846.142 48.7463 845.86 48.8814 845.561 48.8981L833.498 49.5678C833.198 49.5845 832.904 49.4813 832.68 49.281C832.456 49.0807 832.321 48.7997 832.304 48.4998C832.288 48.1998 832.391 47.9056 832.591 47.6817C832.791 47.4579 833.072 47.3228 833.372 47.3061L845.435 46.6363C845.735 46.6197 846.029 46.7229 846.253 46.9232C846.477 47.1235 846.612 47.4045 846.629 47.7044ZM845.77 52.6677L833.707 53.3374C833.407 53.3541 833.126 53.4892 832.926 53.713C832.726 53.9369 832.622 54.2312 832.639 54.5311C832.656 54.831 832.791 55.112 833.015 55.3123C833.239 55.5126 833.533 55.6158 833.833 55.5992L845.895 54.9294C846.195 54.9127 846.476 54.7776 846.677 54.5538C846.877 54.3299 846.98 54.0357 846.964 53.7357C846.947 53.4358 846.812 53.1548 846.588 52.9545C846.364 52.7542 846.07 52.651 845.77 52.6677ZM858.189 37.9877L859.528 62.1129C859.567 62.8128 859.327 63.4994 858.859 64.0217C858.392 64.544 857.736 64.8593 857.036 64.8982L845.428 65.5427L843.004 70.4038C842.795 70.8209 842.481 71.1755 842.091 71.4316C841.702 71.6877 841.251 71.8363 840.786 71.8621C840.32 71.888 839.856 71.7902 839.441 71.5788C839.025 71.3674 838.673 71.0498 838.42 70.6583L835.472 66.0955L823.864 66.74C823.164 66.7789 822.478 66.5381 821.955 66.0708C821.433 65.6034 821.118 64.9477 821.079 64.2478L819.739 40.1225C819.7 39.4227 819.941 38.7361 820.409 38.2138C820.876 37.6915 821.532 37.3762 822.231 37.3373L855.404 35.4955C856.104 35.4566 856.79 35.6974 857.312 36.1647C857.835 36.6321 858.15 37.2878 858.189 37.9877ZM855.927 38.1133C855.922 38.0133 855.877 37.9196 855.802 37.8528C855.727 37.7861 855.629 37.7517 855.529 37.7572L822.357 39.5991C822.257 39.6046 822.163 39.6497 822.097 39.7243C822.03 39.7989 821.995 39.897 822.001 39.997L823.341 64.1222C823.346 64.2222 823.391 64.3159 823.466 64.3827C823.54 64.4494 823.638 64.4838 823.738 64.4783L836.003 63.7973C836.202 63.7858 836.4 63.827 836.578 63.9167C836.756 64.0064 836.907 64.1414 837.016 64.3082L840.325 69.4182C840.361 69.4744 840.411 69.52 840.471 69.5503C840.53 69.5807 840.597 69.5948 840.663 69.5911C840.73 69.5874 840.795 69.566 840.85 69.5293C840.906 69.4925 840.951 69.4416 840.981 69.3818L843.703 63.9369C843.793 63.7591 843.928 63.6081 844.095 63.4993C844.262 63.3904 844.455 63.3275 844.654 63.317L856.911 62.6364C857.011 62.6309 857.104 62.5858 857.171 62.5112C857.238 62.4366 857.272 62.3385 857.267 62.2385L855.927 38.1133Z" fill="#1E1E1E"/>
<line x1="899.365" y1="18.4627" x2="902.969" y2="83.3737" stroke="#EEEEEE" stroke-width="2.24176"/>
<path d="M974.637 45.4562C974.74 45.5482 974.824 45.6596 974.883 45.784C974.943 45.9084 974.978 46.0433 974.986 46.1812C974.993 46.319 974.974 46.457 974.928 46.5872C974.882 46.7175 974.811 46.8375 974.719 46.9403L961.171 62.0706C959.498 63.9389 957.152 65.0664 954.648 65.2049C952.145 65.3434 949.689 64.4817 947.82 62.8092C945.952 61.1368 944.824 58.7906 944.686 56.2868C944.547 53.7831 945.409 51.3269 947.082 49.4585L963.457 30.8889C964.039 30.2375 964.744 29.7072 965.531 29.3282C966.318 28.9492 967.173 28.7291 968.045 28.6802C968.917 28.6314 969.791 28.7548 970.615 29.0435C971.44 29.3323 972.2 29.7806 972.851 30.3629C973.503 30.9452 974.033 31.6501 974.412 32.4374C974.791 33.2246 975.011 34.0788 975.06 34.9512C975.109 35.8236 974.985 36.697 974.696 37.5217C974.408 38.3463 973.959 39.106 973.377 39.7574L957 58.3201C956.663 58.6975 956.255 59.0048 955.799 59.2244C955.343 59.4441 954.849 59.5718 954.344 59.6004C953.839 59.6289 953.333 59.5577 952.855 59.3907C952.378 59.2238 951.938 58.9644 951.56 58.6274C951.183 58.2904 950.876 57.8824 950.656 57.4267C950.436 56.9709 950.309 56.4764 950.28 55.9713C950.252 55.4662 950.323 54.9604 950.49 54.4828C950.657 54.0052 950.916 53.5652 951.253 53.1879L964.989 37.579C965.08 37.4754 965.191 37.3908 965.315 37.3299C965.439 37.2691 965.573 37.2333 965.711 37.2245C965.849 37.2157 965.987 37.2341 966.117 37.2787C966.248 37.3233 966.369 37.3932 966.472 37.4844C966.576 37.5756 966.66 37.6863 966.721 37.8102C966.782 37.9341 966.818 38.0687 966.827 38.2065C966.836 38.3442 966.817 38.4823 966.773 38.613C966.728 38.7436 966.658 38.8642 966.567 38.9678L952.831 54.5836C952.678 54.7546 952.559 54.9542 952.483 55.171C952.406 55.3878 952.373 55.6176 952.385 55.8472C952.397 56.0769 952.454 56.3018 952.554 56.5093C952.653 56.7168 952.792 56.9028 952.963 57.0565C953.134 57.2103 953.333 57.3289 953.55 57.4055C953.767 57.4821 953.997 57.5153 954.226 57.5031C954.456 57.4909 954.681 57.4336 954.888 57.3345C955.096 57.2354 955.282 57.0963 955.436 56.9254L971.806 38.3613C972.611 37.4623 973.027 36.28 972.961 35.0746C972.895 33.8691 972.353 32.7392 971.454 31.9335C970.555 31.1277 969.373 30.7121 968.167 30.7781C966.962 30.844 965.832 31.3861 965.026 32.2851L948.649 50.8478C947.348 52.3006 946.677 54.2108 946.784 56.1582C946.891 58.1057 947.767 59.9309 949.22 61.2323C950.672 62.5338 952.582 63.2048 954.53 63.0978C956.477 62.9908 958.303 62.1146 959.604 60.6619L973.152 45.5316C973.245 45.4291 973.357 45.3459 973.481 45.2866C973.606 45.2273 973.741 45.1932 973.879 45.1862C974.017 45.1792 974.155 45.1995 974.285 45.2458C974.415 45.2921 974.535 45.3636 974.637 45.4562Z" fill="#1E1E1E"/>
<defs>
<filter id="filter0_d_333_3860" x="162.703" y="54.5307" width="127.243" height="128.228" filterUnits="userSpaceOnUse" color-interpolation-filters="sRGB">
<feFlood flood-opacity="0" result="BackgroundImageFix"/>
<feColorMatrix in="SourceAlpha" type="matrix" values="0 0 0 0 0 0 0 0 0 0 0 0 0 0 0 0 0 0 127 0" result="hardAlpha"/>
<feOffset dx="2.54141" dy="10.1656"/>
<feGaussianBlur stdDeviation="5.08281"/>
<feComposite in2="hardAlpha" operator="out"/>
<feColorMatrix type="matrix" values="0 0 0 0 0 0 0 0 0 0 0 0 0 0 0 0 0 0 0.25 0"/>
<feBlend mode="normal" in2="BackgroundImageFix" result="effect1_dropShadow_333_3860"/>
<feBlend mode="normal" in="SourceGraphic" in2="effect1_dropShadow_333_3860" result="shape"/>
</filter>
<filter id="filter1_i_333_3860" x="174.896" y="54.5307" width="102.344" height="103.24" filterUnits="userSpaceOnUse" color-interpolation-filters="sRGB">
<feFlood flood-opacity="0" result="BackgroundImageFix"/>
<feBlend mode="normal" in="SourceGraphic" in2="BackgroundImageFix" result="shape"/>
<feColorMatrix in="SourceAlpha" type="matrix" values="0 0 0 0 0 0 0 0 0 0 0 0 0 0 0 0 0 0 127 0" result="hardAlpha"/>
<feOffset dy="0.896703"/>
<feGaussianBlur stdDeviation="0.896703"/>
<feComposite in2="hardAlpha" operator="arithmetic" k2="-1" k3="1"/>
<feColorMatrix type="matrix" values="0 0 0 0 1 0 0 0 0 1 0 0 0 0 1 0 0 0 0.25 0"/>
<feBlend mode="normal" in2="shape" result="effect1_innerShadow_333_3860"/>
</filter>
<filter id="filter2_i_333_3860" x="173.984" y="66.1245" width="91.2266" height="92.1233" filterUnits="userSpaceOnUse" color-interpolation-filters="sRGB">
<feFlood flood-opacity="0" result="BackgroundImageFix"/>
<feBlend mode="normal" in="SourceGraphic" in2="BackgroundImageFix" result="shape"/>
<feColorMatrix in="SourceAlpha" type="matrix" values="0 0 0 0 0 0 0 0 0 0 0 0 0 0 0 0 0 0 127 0" result="hardAlpha"/>
<feOffset dy="0.896703"/>
<feGaussianBlur stdDeviation="0.896703"/>
<feComposite in2="hardAlpha" operator="arithmetic" k2="-1" k3="1"/>
<feColorMatrix type="matrix" values="0 0 0 0 1 0 0 0 0 1 0 0 0 0 1 0 0 0 0.25 0"/>
<feBlend mode="normal" in2="shape" result="effect1_innerShadow_333_3860"/>
</filter>
<filter id="filter3_i_333_3860" x="170.327" y="80.2202" width="82.208" height="83.1037" filterUnits="userSpaceOnUse" color-interpolation-filters="sRGB">
<feFlood flood-opacity="0" result="BackgroundImageFix"/>
<feBlend mode="normal" in="SourceGraphic" in2="BackgroundImageFix" result="shape"/>
<feColorMatrix in="SourceAlpha" type="matrix" values="0 0 0 0 0 0 0 0 0 0 0 0 0 0 0 0 0 0 127 0" result="hardAlpha"/>
<feOffset dy="0.896703"/>
<feGaussianBlur stdDeviation="0.896703"/>
<feComposite in2="hardAlpha" operator="arithmetic" k2="-1" k3="1"/>
<feColorMatrix type="matrix" values="0 0 0 0 1 0 0 0 0 1 0 0 0 0 1 0 0 0 0.25 0"/>
<feBlend mode="normal" in2="shape" result="effect1_innerShadow_333_3860"/>
</filter>
<filter id="filter4_d_333_3860" x="298.359" y="49.1694" width="62.2277" height="99.1223" filterUnits="userSpaceOnUse" color-interpolation-filters="sRGB">
<feFlood flood-opacity="0" result="BackgroundImageFix"/>
<feColorMatrix in="SourceAlpha" type="matrix" values="0 0 0 0 0 0 0 0 0 0 0 0 0 0 0 0 0 0 127 0" result="hardAlpha"/>
<feOffset dx="2.54141" dy="10.1656"/>
<feGaussianBlur stdDeviation="5.08281"/>
<feComposite in2="hardAlpha" operator="out"/>
<feColorMatrix type="matrix" values="0 0 0 0 0 0 0 0 0 0 0 0 0 0 0 0 0 0 0.25 0"/>
<feBlend mode="normal" in2="BackgroundImageFix" result="effect1_dropShadow_333_3860"/>
<feBlend mode="normal" in="SourceGraphic" in2="effect1_dropShadow_333_3860" result="shape"/>
</filter>
<linearGradient id="paint0_linear_333_3860" x1="345.963" y1="99.9642" x2="307.9" y2="102.078" gradientUnits="userSpaceOnUse">
<stop stop-color="#F8F4F4"/>
<stop offset="0.359086" stop-color="#D9D9D9"/>
<stop offset="1" stop-color="#DFDFDF"/>
</linearGradient>
<linearGradient id="paint1_linear_333_3860" x1="307.9" y1="102.078" x2="345.963" y2="99.9642" gradientUnits="userSpaceOnUse">
<stop stop-color="#C7C7C7"/>
<stop offset="0.5625" stop-color="#E5E5E5"/>
<stop offset="0.971154" stop-color="#C9C9C9"/>
</linearGradient>
<linearGradient id="paint2_linear_333_3860" x1="344.071" y1="65.8962" x2="306.009" y2="68.0096" gradientUnits="userSpaceOnUse">
<stop stop-color="#737373"/>
<stop offset="0.491497" stop-color="#D9D9D9"/>
<stop offset="1" stop-color="#737373"/>
</linearGradient>
<linearGradient id="paint3_linear_333_3860" x1="344.071" y1="65.8962" x2="306.009" y2="68.0096" gradientUnits="userSpaceOnUse">
<stop stop-color="#F8F4F4"/>
<stop offset="0.359086" stop-color="#D9D9D9"/>
<stop offset="1" stop-color="#DFDFDF"/>
</linearGradient>
<linearGradient id="paint4_linear_333_3860" x1="306.009" y1="68.0096" x2="344.071" y2="65.8962" gradientUnits="userSpaceOnUse">
<stop stop-color="#C7C7C7"/>
<stop offset="0.5625" stop-color="#E5E5E5"/>
<stop offset="0.971154" stop-color="#C9C9C9"/>
</linearGradient>
</defs>
</svg>
