<svg width="22" height="39" viewBox="0 0 22 39" fill="none" xmlns="http://www.w3.org/2000/svg">
<path d="M21.6132 0L0.435165 8.46154V12.5231L6.81758 10.0088C3.09451 12.7648 0 16.3429 0 19.9209C0 22.2418 1.69231 23.5956 4.88352 23.5956C7.63956 23.5956 11.1209 22.8703 14.022 22.8703C16.778 22.8703 18.2769 23.3055 18.2769 25.0945C18.2769 27.4154 14.989 30.945 8.46154 35.7802L10.9275 38.3912C17.7451 33.2176 22 29.2044 22 24.1275C22 20.7912 19.6791 18.8571 14.1187 18.8571C10.9758 18.8571 8.07473 19.5824 5.46374 19.5824C4.3033 19.5824 3.77143 19.1956 3.77143 18.4703C3.77143 17.5033 4.4967 15.7143 9.47692 11.7978C13.0066 8.99341 16.7297 6.47912 21.6132 4.01319V0Z" fill="#1C1917"/>
<path d="M14.7689 8.79964L15.2815 10.3216C15.8407 11.9819 17.5473 12.9672 19.2647 12.6213L20.8391 12.3042L19.3171 12.8168C17.6568 13.376 16.6715 15.0826 17.0174 16.8L17.3345 18.3743L16.8219 16.8524C16.2627 15.1921 14.5561 14.2068 12.8387 14.5527L11.2643 14.8698L12.7863 14.3572C14.4466 13.798 15.4319 12.0914 15.086 10.374L14.7689 8.79964Z" fill="#101010"/>
<path d="M14.7689 8.79964L15.2815 10.3216C15.8407 11.9819 17.5473 12.9672 19.2647 12.6213L20.8391 12.3042L19.3171 12.8168C17.6568 13.376 16.6715 15.0826 17.0174 16.8L17.3345 18.3743L16.8219 16.8524C16.2627 15.1921 14.5561 14.2068 12.8387 14.5527L11.2643 14.8698L12.7863 14.3572C14.4466 13.798 15.4319 12.0914 15.086 10.374L14.7689 8.79964Z" fill="#101010"/>
<path d="M14.7689 8.79964L15.2815 10.3216C15.8407 11.9819 17.5473 12.9672 19.2647 12.6213L20.8391 12.3042L19.3171 12.8168C17.6568 13.376 16.6715 15.0826 17.0174 16.8L17.3345 18.3743L16.8219 16.8524C16.2627 15.1921 14.5561 14.2068 12.8387 14.5527L11.2643 14.8698L12.7863 14.3572C14.4466 13.798 15.4319 12.0914 15.086 10.374L14.7689 8.79964Z" fill="#1C1917"/>
</svg>
